<svg width="25" height="25" viewBox="0 0 25 25" fill="none" xmlns="http://www.w3.org/2000/svg">
<g clip-path="url(#clip0_124_2)">
<path d="M9.64922 4.84033L10.3864 2.93747C10.5107 2.6153 10.7294 2.33818 11.0139 2.14241C11.2984 1.94664 11.6353 1.84135 11.9807 1.84033H13.3864C13.7317 1.84135 14.0687 1.94664 14.3531 2.14241C14.6376 2.33818 14.8563 2.6153 14.9807 2.93747L15.7178 4.84033L18.2207 6.28033L20.2435 5.97176C20.5803 5.92604 20.9232 5.98149 21.2284 6.13106C21.5336 6.28063 21.7875 6.51756 21.9578 6.81176L22.6435 8.01176C22.8192 8.31064 22.9002 8.65578 22.8757 9.00162C22.8512 9.34747 22.7224 9.67776 22.5064 9.9489L21.2549 11.5432V14.4232L22.5407 16.0175C22.7567 16.2886 22.8855 16.6189 22.91 16.9648C22.9345 17.3106 22.8535 17.6557 22.6778 17.9546L21.9921 19.1546C21.8218 19.4488 21.5679 19.6858 21.2627 19.8353C20.9574 19.9849 20.6146 20.0403 20.2778 19.9946L18.2549 19.686L15.7521 21.126L15.0149 23.0289C14.8906 23.3511 14.6719 23.6282 14.3874 23.824C14.1029 24.0197 13.766 24.125 13.4207 24.126H11.9807C11.6353 24.125 11.2984 24.0197 11.0139 23.824C10.7294 23.6282 10.5107 23.3511 10.3864 23.0289L9.64922 21.126L7.14637 19.686L5.12351 19.9946C4.78668 20.0403 4.44386 19.9849 4.13862 19.8353C3.83338 19.6858 3.57949 19.4488 3.40922 19.1546L2.72351 17.9546C2.5478 17.6557 2.46684 17.3106 2.49133 16.9648C2.51581 16.6189 2.64458 16.2886 2.86065 16.0175L4.11208 14.4232V11.5432L2.82637 9.9489C2.6103 9.67776 2.48152 9.34747 2.45704 9.00162C2.43256 8.65578 2.51351 8.31064 2.68922 8.01176L3.37494 6.81176C3.54521 6.51756 3.79909 6.28063 4.10434 6.13106C4.40958 5.98149 4.75239 5.92604 5.08922 5.97176L7.11208 6.28033L9.64922 4.84033ZM9.25494 12.9832C9.25494 13.6613 9.45602 14.3242 9.83276 14.888C10.2095 15.4518 10.745 15.8913 11.3715 16.1508C11.9979 16.4103 12.6873 16.4782 13.3524 16.3459C14.0175 16.2136 14.6284 15.887 15.1079 15.4076C15.5874 14.9281 15.9139 14.3171 16.0462 13.6521C16.1785 12.987 16.1106 12.2976 15.8511 11.6711C15.5916 11.0446 15.1521 10.5092 14.5883 10.1324C14.0245 9.7557 13.3616 9.55462 12.6835 9.55462C11.7742 9.55462 10.9021 9.91584 10.2591 10.5588C9.61616 11.2018 9.25494 12.0739 9.25494 12.9832V12.9832Z" stroke="black" stroke-width="1.71429" stroke-linecap="round" stroke-linejoin="round"/>
</g>
<defs>
<clipPath id="clip0_124_2">
<rect width="24" height="24" fill="white" transform="translate(0.683472 0.983154)"/>
</clipPath>
</defs>
</svg>
