<svg width="24" height="24" viewBox="0 0 24 24" fill="none" xmlns="http://www.w3.org/2000/svg">
<path d="M4.28575 23.0056C6.1793 23.0056 7.71432 21.4706 7.71432 19.577C7.71432 17.6835 6.1793 16.1484 4.28575 16.1484C2.3922 16.1484 0.857178 17.6835 0.857178 19.577C0.857178 21.4706 2.3922 23.0056 4.28575 23.0056Z" stroke="black" stroke-width="1.71429" stroke-linecap="round" stroke-linejoin="round"/>
<path d="M19.7143 18.7199C21.6079 18.7199 23.1429 17.1849 23.1429 15.2914C23.1429 13.3978 21.6079 11.8628 19.7143 11.8628C17.8208 11.8628 16.2858 13.3978 16.2858 15.2914C16.2858 17.1849 17.8208 18.7199 19.7143 18.7199Z" stroke="black" stroke-width="1.71429" stroke-linecap="round" stroke-linejoin="round"/>
<path d="M23.1429 15.2914V1.85136C23.1422 1.72021 23.1114 1.59097 23.0528 1.4736C22.9943 1.35623 22.9096 1.25386 22.8053 1.17437C22.7009 1.09488 22.5798 1.04039 22.4511 1.01511C22.3224 0.989818 22.1896 0.994402 22.0629 1.02851L8.34864 4.83422C8.16741 4.88301 8.0072 4.98995 7.89262 5.1386C7.77804 5.28724 7.71541 5.46939 7.71436 5.65708V19.5771" stroke="black" stroke-width="1.71429" stroke-linecap="round" stroke-linejoin="round"/>
<path d="M7.71436 10.1485L23.1429 5.86279" stroke="black" stroke-width="1.71429" stroke-linecap="round" stroke-linejoin="round"/>
</svg>
