<svg width="24" height="24" viewBox="0 0 24 24" fill="none" xmlns="http://www.w3.org/2000/svg">
<path d="M6.85718 0.857178H17.1429C18.7342 0.857178 20.2603 1.48932 21.3855 2.61454C22.5108 3.73976 23.1429 5.26588 23.1429 6.85718C23.1429 7.31183 22.9623 7.74787 22.6408 8.06936C22.3193 8.39085 21.8833 8.57146 21.4286 8.57146H2.57146C2.11681 8.57146 1.68077 8.39085 1.35928 8.06936C1.03779 7.74787 0.857178 7.31183 0.857178 6.85718C0.857178 5.26588 1.48932 3.73976 2.61454 2.61454C3.73976 1.48932 5.26588 0.857178 6.85718 0.857178V0.857178Z" stroke="black" stroke-width="1.71429" stroke-linecap="round" stroke-linejoin="round"/>
<path d="M0.857178 12.8572H23.1429" stroke="black" stroke-width="1.71429" stroke-linecap="round" stroke-linejoin="round"/>
<path d="M22.2857 17.1429H12L9.42861 19.7144L4.28575 17.1429H1.71432C1.48699 17.1429 1.26897 17.2332 1.10823 17.394C0.947484 17.5547 0.857178 17.7728 0.857178 18.0001V18.0001C0.857178 19.3641 1.39901 20.6722 2.36349 21.6366C3.32796 22.6011 4.63606 23.1429 6.00003 23.1429H18C19.364 23.1429 20.6721 22.6011 21.6366 21.6366C22.6011 20.6722 23.1429 19.3641 23.1429 18.0001C23.1429 17.7728 23.0526 17.5547 22.8918 17.394C22.7311 17.2332 22.5131 17.1429 22.2857 17.1429Z" stroke="black" stroke-width="1.71429" stroke-linecap="round" stroke-linejoin="round"/>
</svg>
