<svg width="24" height="24" viewBox="0 0 24 24" fill="none" xmlns="http://www.w3.org/2000/svg">
<path d="M13.7143 17.1429V21.4287C13.7143 21.8833 13.5337 22.3194 13.2122 22.6408C12.8907 22.9623 12.4547 23.1429 12.0001 23.1429C11.5454 23.1429 11.1094 22.9623 10.7879 22.6408C10.4664 22.3194 10.2858 21.8833 10.2858 21.4287V17.1429" stroke="black" stroke-width="1.71429" stroke-linecap="round" stroke-linejoin="round"/>
<path d="M16.7143 5.14289C15.9186 5.14289 15.1556 4.82682 14.593 4.26421C14.0304 3.7016 13.7143 2.93854 13.7143 2.14289C13.7184 1.81565 13.7763 1.49132 13.8857 1.18289C13.2777 0.977744 12.6416 0.867873 12 0.857178C10.4087 0.857178 8.88258 1.48932 7.75736 2.61454C6.63214 3.73976 6 5.26588 6 6.85718V15.4286C6 15.8833 6.18061 16.3193 6.5021 16.6408C6.82359 16.9623 7.25963 17.1429 7.71429 17.1429H16.2857C16.7404 17.1429 17.1764 16.9623 17.4979 16.6408C17.8194 16.3193 18 15.8833 18 15.4286V6.85718C17.9893 6.21557 17.8794 5.57948 17.6743 4.97146C17.3659 5.08088 17.0415 5.1388 16.7143 5.14289V5.14289Z" stroke="black" stroke-width="1.71429" stroke-linecap="round" stroke-linejoin="round"/>
</svg>
