<svg width="24" height="24" viewBox="0 0 24 24" fill="none" xmlns="http://www.w3.org/2000/svg">
<path d="M3.42855 6.85718H17.1428C17.3702 6.85718 17.5882 6.94748 17.7489 7.10823C17.9097 7.26897 18 7.48699 18 7.71432V15.4286C18 16.3379 17.6388 17.21 16.9958 17.853C16.3528 18.496 15.4807 18.8572 14.5714 18.8572H5.99998C5.09067 18.8572 4.2186 18.496 3.57562 17.853C2.93263 17.21 2.57141 16.3379 2.57141 15.4286V7.71432C2.57141 7.48699 2.66172 7.26897 2.82246 7.10823C2.98321 6.94748 3.20123 6.85718 3.42855 6.85718V6.85718Z" stroke="black" stroke-width="1.71429" stroke-linecap="round" stroke-linejoin="round"/>
<path d="M0.857178 23.1428H23.1429" stroke="black" stroke-width="1.71429" stroke-linecap="round" stroke-linejoin="round"/>
<path d="M18 8.57153H19.7143C20.6236 8.57153 21.4957 8.93276 22.1387 9.57574C22.7816 10.2187 23.1429 11.0908 23.1429 12.0001C23.1429 12.9094 22.7816 13.7815 22.1387 14.4245C21.4957 15.0675 20.6236 15.4287 19.7143 15.4287H18" stroke="black" stroke-width="1.71429" stroke-linecap="round" stroke-linejoin="round"/>
<path d="M5.14294 0.857178V2.57146" stroke="black" stroke-width="1.71429" stroke-linecap="round" stroke-linejoin="round"/>
<path d="M13.7144 0.857178V2.57146" stroke="black" stroke-width="1.71429" stroke-linecap="round" stroke-linejoin="round"/>
<path d="M9.42859 0.857178V2.57146" stroke="black" stroke-width="1.71429" stroke-linecap="round" stroke-linejoin="round"/>
</svg>
