<svg width="24" height="24" viewBox="0 0 24 24" fill="none" xmlns="http://www.w3.org/2000/svg">
<path d="M21.4286 9.42871H2.57146C1.62469 9.42871 0.857178 10.1962 0.857178 11.143V21.4287C0.857178 22.3755 1.62469 23.143 2.57146 23.143H21.4286C22.3754 23.143 23.1429 22.3755 23.1429 21.4287V11.143C23.1429 10.1962 22.3754 9.42871 21.4286 9.42871Z" stroke="black" stroke-width="1.71429" stroke-linecap="round" stroke-linejoin="round"/>
<path d="M5.14294 6.0001V2.57153" stroke="black" stroke-width="1.71429" stroke-linecap="round" stroke-linejoin="round"/>
<path d="M12 6.0001V2.57153" stroke="black" stroke-width="1.71429" stroke-linecap="round" stroke-linejoin="round"/>
<path d="M18.8572 6.0001V2.57153" stroke="black" stroke-width="1.71429" stroke-linecap="round" stroke-linejoin="round"/>
<path d="M23.1429 17.1429H22.2857C21.3764 17.1429 20.5044 16.7817 19.8614 16.1387C19.2184 15.4957 18.8572 14.6237 18.8572 13.7144C18.8572 14.6237 18.496 15.4957 17.853 16.1387C17.21 16.7817 16.3379 17.1429 15.4286 17.1429C14.5193 17.1429 13.6472 16.7817 13.0042 16.1387C12.3613 15.4957 12 14.6237 12 13.7144C12 14.6237 11.6388 15.4957 10.9958 16.1387C10.3528 16.7817 9.48078 17.1429 8.57146 17.1429C7.66215 17.1429 6.79008 16.7817 6.1471 16.1387C5.50412 15.4957 5.14289 14.6237 5.14289 13.7144C5.14289 14.6237 4.78167 15.4957 4.13869 16.1387C3.49571 16.7817 2.62363 17.1429 1.71432 17.1429H0.857178" stroke="black" stroke-width="1.71429" stroke-linecap="round" stroke-linejoin="round"/>
</svg>
