<svg width="24" height="24" viewBox="0 0 24 24" fill="none" xmlns="http://www.w3.org/2000/svg">
<path d="M9.42854 5.14289C9.42854 4.00625 8.97702 2.91616 8.17329 2.11243C7.36956 1.30871 6.27947 0.857178 5.14283 0.857178C4.00619 0.857178 2.9161 1.30871 2.11237 2.11243C1.30865 2.91616 0.857117 4.00625 0.857117 5.14289V18L5.14283 23.1429L9.42854 18V5.14289Z" stroke="black" stroke-width="1.71429" stroke-linecap="round" stroke-linejoin="round"/>
<path d="M0.857117 7.71436H9.42854" stroke="black" stroke-width="1.71429" stroke-linecap="round" stroke-linejoin="round"/>
<path d="M12.8571 4.28575C12.8571 3.37644 13.2183 2.50436 13.8613 1.86138C14.5043 1.2184 15.3764 0.857178 16.2857 0.857178C17.195 0.857178 18.0671 1.2184 18.7101 1.86138C19.353 2.50436 19.7143 3.37644 19.7143 4.28575V18C19.7143 18.4547 19.5336 18.8907 19.2122 19.2122C18.8907 19.5337 18.4546 19.7143 18 19.7143H14.5714C14.1167 19.7143 13.6807 19.5337 13.3592 19.2122C13.0377 18.8907 12.8571 18.4547 12.8571 18V4.28575Z" stroke="black" stroke-width="1.71429" stroke-linecap="round" stroke-linejoin="round"/>
<path d="M16.2856 19.7144V23.1429" stroke="black" stroke-width="1.71429" stroke-linecap="round" stroke-linejoin="round"/>
<path d="M12.8571 7.71436H21.4285C21.8832 7.71436 22.3192 7.89497 22.6407 8.21646C22.9622 8.53795 23.1428 8.97398 23.1428 9.42864V16.2858" stroke="black" stroke-width="1.71429" stroke-linecap="round" stroke-linejoin="round"/>
</svg>
