<svg width="24" height="24" viewBox="0 0 24 24" fill="none" xmlns="http://www.w3.org/2000/svg">
<path d="M12 0.857178H13.7143C14.6236 0.857178 15.4957 1.2184 16.1387 1.86138C16.7816 2.50436 17.1429 3.37644 17.1429 4.28575V12H12V0.857178Z" stroke="black" stroke-width="1.71429" stroke-linecap="round" stroke-linejoin="round"/>
<path d="M6.85712 12H12V23.1429H10.2857C9.37637 23.1429 8.5043 22.7816 7.86132 22.1387C7.21834 21.4957 6.85712 20.6236 6.85712 19.7143V12Z" stroke="black" stroke-width="1.71429" stroke-linecap="round" stroke-linejoin="round"/>
<path d="M23.1428 12V13.7143C23.1428 14.6236 22.7816 15.4957 22.1386 16.1387C21.4956 16.7816 20.6236 17.1429 19.7143 17.1429H12V12H23.1428Z" stroke="black" stroke-width="1.71429" stroke-linecap="round" stroke-linejoin="round"/>
<path d="M12 6.85718V12H0.857143V10.2857C0.857143 9.37644 1.21837 8.50436 1.86135 7.86138C2.50433 7.2184 3.3764 6.85718 4.28571 6.85718L12 6.85718Z" stroke="black" stroke-width="1.71429" stroke-linecap="round" stroke-linejoin="round"/>
</svg>
