<svg width="24" height="24" viewBox="0 0 24 24" fill="none" xmlns="http://www.w3.org/2000/svg">
<g clip-path="url(#clip0_110_425)">
<path d="M12.7885 3.42857C12.7028 3.29771 12.5858 3.19024 12.4481 3.11587C12.3104 3.0415 12.1564 3.00256 12 3.00256C11.8435 3.00256 11.6895 3.0415 11.5518 3.11587C11.4142 3.19024 11.2972 3.29771 11.2114 3.42857L0.925687 19.7143C0.850457 19.8446 0.810852 19.9924 0.810852 20.1429C0.810852 20.2933 0.850457 20.4411 0.925687 20.5714C1.01 20.7039 1.12661 20.8127 1.26456 20.8877C1.40251 20.9626 1.55726 21.0013 1.71426 21H22.2857C22.4427 21.0013 22.5974 20.9626 22.7354 20.8877C22.8733 20.8127 22.9899 20.7039 23.0743 20.5714C23.1495 20.4411 23.1891 20.2933 23.1891 20.1429C23.1891 19.9924 23.1495 19.8446 23.0743 19.7143L12.7885 3.42857Z" stroke="black" stroke-width="1.71429" stroke-linecap="round" stroke-linejoin="round"/>
</g>
<defs>
<clipPath id="clip0_110_425">
<rect width="24" height="24" fill="white"/>
</clipPath>
</defs>
</svg>
