<svg width="24" height="24" viewBox="0 0 24 24" fill="none" xmlns="http://www.w3.org/2000/svg">
<path d="M2.5714 4.28564C2.11675 4.28564 1.68071 4.46626 1.35922 4.78775C1.03773 5.10924 0.857117 5.54527 0.857117 5.99993V21.4285C0.857117 21.8832 1.03773 22.3192 1.35922 22.6407C1.68071 22.9622 2.11675 23.1428 2.5714 23.1428H21.4285C21.8832 23.1428 22.3192 22.9622 22.6407 22.6407C22.9622 22.3192 23.1428 21.8832 23.1428 21.4285V5.99993C23.1428 5.54527 22.9622 5.10924 22.6407 4.78775C22.3192 4.46626 21.8832 4.28564 21.4285 4.28564H18" stroke="black" stroke-width="1.71429" stroke-linecap="round" stroke-linejoin="round"/>
<path d="M6 0.857178V7.71432" stroke="black" stroke-width="1.71429" stroke-linecap="round" stroke-linejoin="round"/>
<path d="M18 0.857178V7.71432" stroke="black" stroke-width="1.71429" stroke-linecap="round" stroke-linejoin="round"/>
<path d="M6 4.28564H14.5714" stroke="black" stroke-width="1.71429" stroke-linecap="round" stroke-linejoin="round"/>
<path d="M11.0571 9.20566C11.1309 9.01559 11.2604 8.85226 11.4287 8.73709C11.597 8.62193 11.7961 8.5603 12 8.5603C12.2039 8.5603 12.403 8.62193 12.5713 8.73709C12.7395 8.85226 12.869 9.01559 12.9428 9.20566L14.04 11.9999H16.9714C17.1631 12.0146 17.3468 12.0826 17.5018 12.1964C17.6568 12.3101 17.7768 12.465 17.8482 12.6435C17.9196 12.822 17.9395 13.0169 17.9057 13.2062C17.872 13.3954 17.7858 13.5714 17.6571 13.7142L15.0686 16.0457L16.1657 18.2399C16.265 18.4326 16.2987 18.6524 16.2615 18.8659C16.2244 19.0795 16.1185 19.275 15.96 19.4228C15.8026 19.5725 15.6024 19.6694 15.3874 19.7001C15.1723 19.7308 14.953 19.6938 14.76 19.5942L12 18.0857L9.23999 19.5942C9.04694 19.6938 8.82766 19.7308 8.61261 19.7001C8.39757 19.6694 8.19742 19.5725 8.03999 19.4228C7.88146 19.275 7.77558 19.0795 7.73844 18.8659C7.7013 18.6524 7.73496 18.4326 7.83427 18.2399L8.93142 16.0457L6.34284 13.7142C6.21413 13.5714 6.128 13.3954 6.09424 13.2062C6.06047 13.0169 6.08042 12.822 6.15181 12.6435C6.22321 12.465 6.3432 12.3101 6.49816 12.1964C6.65313 12.0826 6.83688 12.0146 7.02856 11.9999H9.95999L11.0571 9.20566Z" stroke="black" stroke-width="1.71429" stroke-linecap="round" stroke-linejoin="round"/>
</svg>
