<svg width="24" height="24" viewBox="0 0 24 24" fill="none" xmlns="http://www.w3.org/2000/svg">
<path d="M12 23.1429C18.1541 23.1429 23.1429 18.1541 23.1429 12C23.1429 5.846 18.1541 0.857178 12 0.857178C5.846 0.857178 0.857178 5.846 0.857178 12C0.857178 18.1541 5.846 23.1429 12 23.1429Z" stroke="black" stroke-width="1.71429" stroke-linecap="round" stroke-linejoin="round"/>
<path d="M12.0001 12.8572C12.4735 12.8572 12.8572 12.4735 12.8572 12.0001C12.8572 11.5267 12.4735 11.1429 12.0001 11.1429C11.5267 11.1429 11.1429 11.5267 11.1429 12.0001C11.1429 12.4735 11.5267 12.8572 12.0001 12.8572Z" stroke="black" stroke-width="1.71429" stroke-linecap="round" stroke-linejoin="round"/>
<path d="M6.85714 12.8572C7.33053 12.8572 7.71429 12.4735 7.71429 12.0001C7.71429 11.5267 7.33053 11.1429 6.85714 11.1429C6.38376 11.1429 6 11.5267 6 12.0001C6 12.4735 6.38376 12.8572 6.85714 12.8572Z" stroke="black" stroke-width="1.71429" stroke-linecap="round" stroke-linejoin="round"/>
<path d="M17.1429 12.8572C17.6163 12.8572 18.0001 12.4735 18.0001 12.0001C18.0001 11.5267 17.6163 11.1429 17.1429 11.1429C16.6695 11.1429 16.2858 11.5267 16.2858 12.0001C16.2858 12.4735 16.6695 12.8572 17.1429 12.8572Z" stroke="black" stroke-width="1.71429" stroke-linecap="round" stroke-linejoin="round"/>
</svg>
