<svg width="24" height="24" viewBox="0 0 24 24" fill="none" xmlns="http://www.w3.org/2000/svg">
<path d="M13.7143 23.1429H2.57146C2.11681 23.1429 1.68077 22.9623 1.35928 22.6408C1.03779 22.3193 0.857178 21.8833 0.857178 21.4286V2.57146C0.857178 2.11681 1.03779 1.68077 1.35928 1.35928C1.68077 1.03779 2.11681 0.857178 2.57146 0.857178H15.4286" stroke="black" stroke-width="1.71429" stroke-linecap="round" stroke-linejoin="round"/>
<path d="M18 6.00003L20.5714 0.857178L23.1429 6.00003V20.5715C23.1429 21.2534 22.8719 21.9075 22.3897 22.3897C21.9075 22.872 21.2534 23.1429 20.5714 23.1429C19.8894 23.1429 19.2354 22.872 18.7532 22.3897C18.2709 21.9075 18 21.2534 18 20.5715V6.00003Z" stroke="black" stroke-width="1.71429" stroke-linecap="round" stroke-linejoin="round"/>
<path d="M18 16.2856H23.1429" stroke="black" stroke-width="1.71429" stroke-linecap="round" stroke-linejoin="round"/>
<path d="M6 0.857178V23.1429" stroke="black" stroke-width="1.71429" stroke-linecap="round" stroke-linejoin="round"/>
<path d="M10.2858 6.85718H13.7143" stroke="black" stroke-width="1.71429" stroke-linecap="round" stroke-linejoin="round"/>
</svg>
