<svg width="24" height="24" viewBox="0 0 24 24" fill="none" xmlns="http://www.w3.org/2000/svg">
<path d="M9.42854 21.4286C9.90229 20.9919 10.2804 20.4618 10.539 19.8717C10.7976 19.2816 10.9312 18.6443 10.9312 18C10.9312 17.3557 10.7976 16.7184 10.539 16.1283C10.2804 15.5382 9.90229 15.0081 9.42854 14.5715C8.99188 14.0977 8.46177 13.7196 7.87167 13.461C7.28156 13.2024 6.64426 13.0688 5.99997 13.0688C5.35568 13.0688 4.71839 13.2024 4.12828 13.461C3.53817 13.7196 3.00807 14.0977 2.5714 14.5715C0.857117 16.2857 0.857117 23.1429 0.857117 23.1429C0.857117 23.1429 7.71426 23.1429 9.42854 21.4286Z" stroke="black" stroke-width="1.71429" stroke-linecap="round" stroke-linejoin="round"/>
<path d="M22.1486 1.85152C21.5547 1.26523 20.7674 0.915656 19.9343 0.868317C19.1011 0.820979 18.2793 1.07913 17.6228 1.59438L7.71427 8.57153L6.49713 13.0972C7.61419 13.2387 8.64891 13.7591 9.42856 14.5715C10.241 15.3512 10.7613 16.3859 10.9028 17.503L15.4286 16.2858L22.4057 6.37724C22.921 5.7208 23.1791 4.89898 23.1318 4.06582C23.0844 3.23267 22.7349 2.44537 22.1486 1.85152V1.85152Z" stroke="black" stroke-width="1.71429" stroke-linecap="round" stroke-linejoin="round"/>
<path d="M0.857117 23.143L6.42855 17.5715" stroke="black" stroke-width="1.71429" stroke-linecap="round" stroke-linejoin="round"/>
</svg>
