<svg width="24" height="24" viewBox="0 0 24 24" fill="none" xmlns="http://www.w3.org/2000/svg">
<path d="M2.5714 4.28564C2.11675 4.28564 1.68071 4.46626 1.35922 4.78775C1.03773 5.10924 0.857117 5.54527 0.857117 5.99993V21.4285C0.857117 21.8832 1.03773 22.3192 1.35922 22.6407C1.68071 22.9622 2.11675 23.1428 2.5714 23.1428H21.4285C21.8832 23.1428 22.3192 22.9622 22.6407 22.6407C22.9622 22.3192 23.1428 21.8832 23.1428 21.4285V5.99993C23.1428 5.54527 22.9622 5.10924 22.6407 4.78775C22.3192 4.46626 21.8832 4.28564 21.4285 4.28564H18" stroke="black" stroke-width="1.71429" stroke-linecap="round" stroke-linejoin="round"/>
<path d="M6 0.857178V7.71432" stroke="black" stroke-width="1.71429" stroke-linecap="round" stroke-linejoin="round"/>
<path d="M18 0.857178V7.71432" stroke="black" stroke-width="1.71429" stroke-linecap="round" stroke-linejoin="round"/>
<path d="M6 4.28564H14.5714" stroke="black" stroke-width="1.71429" stroke-linecap="round" stroke-linejoin="round"/>
<path d="M5.99997 13.7143C6.47335 13.7143 6.85711 13.3305 6.85711 12.8571C6.85711 12.3838 6.47335 12 5.99997 12C5.52658 12 5.14282 12.3838 5.14282 12.8571C5.14282 13.3305 5.52658 13.7143 5.99997 13.7143Z" stroke="black" stroke-width="1.71429" stroke-linecap="round" stroke-linejoin="round"/>
<path d="M12 13.7143C12.4734 13.7143 12.8571 13.3305 12.8571 12.8571C12.8571 12.3838 12.4734 12 12 12C11.5266 12 11.1428 12.3838 11.1428 12.8571C11.1428 13.3305 11.5266 13.7143 12 13.7143Z" stroke="black" stroke-width="1.71429" stroke-linecap="round" stroke-linejoin="round"/>
<path d="M18 13.7143C18.4734 13.7143 18.8571 13.3305 18.8571 12.8571C18.8571 12.3838 18.4734 12 18 12C17.5266 12 17.1428 12.3838 17.1428 12.8571C17.1428 13.3305 17.5266 13.7143 18 13.7143Z" stroke="black" stroke-width="1.71429" stroke-linecap="round" stroke-linejoin="round"/>
<path d="M5.99997 18.8571C6.47335 18.8571 6.85711 18.4734 6.85711 18C6.85711 17.5266 6.47335 17.1428 5.99997 17.1428C5.52658 17.1428 5.14282 17.5266 5.14282 18C5.14282 18.4734 5.52658 18.8571 5.99997 18.8571Z" stroke="black" stroke-width="1.71429" stroke-linecap="round" stroke-linejoin="round"/>
</svg>
