<svg width="24" height="24" viewBox="0 0 24 24" fill="none" xmlns="http://www.w3.org/2000/svg">
<path d="M6.08573 0.857178H1.80001C1.32663 0.857178 0.942871 1.24093 0.942871 1.71432V22.2857C0.942871 22.7591 1.32663 23.1429 1.80001 23.1429H6.08573C6.55912 23.1429 6.94287 22.7591 6.94287 22.2857V1.71432C6.94287 1.24093 6.55912 0.857178 6.08573 0.857178Z" stroke="black" stroke-width="1.71429" stroke-linecap="round" stroke-linejoin="round"/>
<path d="M12.0857 4.28564H7.80001C7.32663 4.28564 6.94287 4.6694 6.94287 5.14279V22.2856C6.94287 22.759 7.32663 23.1428 7.80001 23.1428H12.0857C12.5591 23.1428 12.9429 22.759 12.9429 22.2856V5.14279C12.9429 4.6694 12.5591 4.28564 12.0857 4.28564Z" stroke="black" stroke-width="1.71429" stroke-linecap="round" stroke-linejoin="round"/>
<path d="M17.8227 3.8165L14.4967 4.64885C14.0374 4.76377 13.7583 5.22921 13.8732 5.68843L18.035 22.3185C18.1499 22.7777 18.6154 23.0568 19.0746 22.9419L22.4006 22.1095C22.8598 21.9946 23.1389 21.5292 23.024 21.0699L18.8623 4.43991C18.7473 3.98069 18.2819 3.70157 17.8227 3.8165Z" stroke="black" stroke-width="1.71429" stroke-linecap="round" stroke-linejoin="round"/>
<path d="M0.942871 17.1428H6.94287" stroke="black" stroke-width="1.71429" stroke-linecap="round" stroke-linejoin="round"/>
<path d="M6.94287 15.4287H12.9429" stroke="black" stroke-width="1.71429" stroke-linecap="round" stroke-linejoin="round"/>
<path d="M17.2286 18.8571L22.1658 17.6228" stroke="black" stroke-width="1.71429" stroke-linecap="round" stroke-linejoin="round"/>
</svg>
