<svg width="24" height="24" viewBox="0 0 24 24" fill="none" xmlns="http://www.w3.org/2000/svg">
<g clip-path="url(#clip0_110_459)">
<path d="M10.5429 0.90857C10.4392 0.846657 10.3207 0.813965 10.2 0.813965C10.0793 0.813965 9.96078 0.846657 9.85714 0.90857C9.77164 0.976309 9.71396 1.07305 9.695 1.18046C9.67604 1.28788 9.69713 1.39852 9.75428 1.49143C11.8629 5.14286 12.3086 10.1143 9.42856 12.8571C8.3205 11.926 7.44079 10.753 6.85714 9.42857C5.7921 10.0201 4.90945 10.8921 4.30502 11.9498C3.70059 13.0076 3.39747 14.2107 3.42857 15.4286C3.47204 16.5022 3.72982 17.5563 4.18675 18.5288C4.64367 19.5013 5.29049 20.3726 6.08917 21.0914C6.88784 21.8102 7.82222 22.362 8.83732 22.7143C9.85242 23.0666 10.9277 23.2123 12 23.1429C17.52 23.1429 20.3828 19.7143 20.5714 15.4286C20.7943 10.2857 17.1429 3.96 10.5429 0.90857Z" stroke="black" stroke-width="1.71429" stroke-linecap="round" stroke-linejoin="round"/>
<path d="M16.2857 15.4286C16.2857 16.3379 15.9245 17.21 15.2815 17.853C14.6386 18.4959 13.7665 18.8572 12.8572 18.8572" stroke="black" stroke-width="1.71429" stroke-linecap="round" stroke-linejoin="round"/>
</g>
<defs>
<clipPath id="clip0_110_459">
<rect width="24" height="24" fill="white"/>
</clipPath>
</defs>
</svg>
