<svg width="24" height="24" viewBox="0 0 24 24" fill="none" xmlns="http://www.w3.org/2000/svg">
<path d="M2.5714 4.28564C2.11675 4.28564 1.68071 4.46626 1.35922 4.78775C1.03773 5.10924 0.857117 5.54527 0.857117 5.99993V21.4285C0.857117 21.8832 1.03773 22.3192 1.35922 22.6407C1.68071 22.9622 2.11675 23.1428 2.5714 23.1428H21.4285C21.8832 23.1428 22.3192 22.9622 22.6407 22.6407C22.9622 22.3192 23.1428 21.8832 23.1428 21.4285V5.99993C23.1428 5.54527 22.9622 5.10924 22.6407 4.78775C22.3192 4.46626 21.8832 4.28564 21.4285 4.28564H18" stroke="black" stroke-width="1.71429" stroke-linecap="round" stroke-linejoin="round"/>
<path d="M6 0.857178V7.71432" stroke="black" stroke-width="1.71429" stroke-linecap="round" stroke-linejoin="round"/>
<path d="M18 0.857178V7.71432" stroke="black" stroke-width="1.71429" stroke-linecap="round" stroke-linejoin="round"/>
<path d="M6 4.28564H14.5714" stroke="black" stroke-width="1.71429" stroke-linecap="round" stroke-linejoin="round"/>
<path d="M6 12H18" stroke="black" stroke-width="1.71429" stroke-linecap="round" stroke-linejoin="round"/>
<path d="M6 17.1428H12.8571" stroke="black" stroke-width="1.71429" stroke-linecap="round" stroke-linejoin="round"/>
</svg>
