<svg width="24" height="24" viewBox="0 0 24 24" fill="none" xmlns="http://www.w3.org/2000/svg">
<g clip-path="url(#clip0_111_470)">
<path d="M0.857117 23.1429L4.28569 19.7144" stroke="black" stroke-width="1.71429" stroke-linecap="round" stroke-linejoin="round"/>
<path d="M8.07426 21.0687C7.91489 21.2293 7.72529 21.3569 7.51639 21.4439C7.30749 21.5309 7.08342 21.5758 6.85711 21.5758C6.63081 21.5758 6.40674 21.5309 6.19784 21.4439C5.98894 21.3569 5.79934 21.2293 5.63997 21.0687L2.9314 18.3601C2.77072 18.2007 2.64319 18.0111 2.55616 17.8022C2.46912 17.5933 2.42432 17.3693 2.42432 17.143C2.42432 16.9167 2.46912 16.6926 2.55616 16.4837C2.64319 16.2748 2.77072 16.0852 2.9314 15.9258L16.9371 1.9201C17.6191 1.23812 18.5441 0.85498 19.5085 0.85498C20.473 0.85498 21.398 1.23812 22.08 1.9201C22.762 2.60209 23.1451 3.52706 23.1451 4.49153C23.1451 5.456 22.762 6.38097 22.08 7.06296L8.07426 21.0687Z" stroke="black" stroke-width="1.71429" stroke-linecap="round" stroke-linejoin="round"/>
<path d="M19.7143 9.42875L12.36 2.07447C12.2006 1.91379 12.011 1.78626 11.8021 1.69922C11.5932 1.61219 11.3692 1.56738 11.1428 1.56738C10.9165 1.56738 10.6925 1.61219 10.4836 1.69922C10.2747 1.78626 10.0851 1.91379 9.92571 2.07447L4.28571 7.71447" stroke="black" stroke-width="1.71429" stroke-linecap="round" stroke-linejoin="round"/>
</g>
<defs>
<clipPath id="clip0_111_470">
<rect width="24" height="24" fill="white"/>
</clipPath>
</defs>
</svg>
