<svg width="24" height="24" viewBox="0 0 24 24" fill="none" xmlns="http://www.w3.org/2000/svg">
<path d="M12 7.71425V5.14282" stroke="black" stroke-width="1.71429" stroke-linecap="round" stroke-linejoin="round"/>
<path d="M9.42859 14.5715C9.42859 15.8572 10.5772 16.2858 12 16.2858C13.4229 16.2858 14.5714 16.2858 14.5714 14.5715C14.5714 12.0001 9.42859 12.0001 9.42859 9.42864C9.42859 7.71436 10.5772 7.71436 12 7.71436C13.4229 7.71436 14.5714 8.36578 14.5714 9.42864" stroke="black" stroke-width="1.71429" stroke-linecap="round" stroke-linejoin="round"/>
<path d="M12 16.2859V18.8573" stroke="black" stroke-width="1.71429" stroke-linecap="round" stroke-linejoin="round"/>
<path d="M12 23.1429C18.1541 23.1429 23.1429 18.1541 23.1429 12C23.1429 5.846 18.1541 0.857178 12 0.857178C5.846 0.857178 0.857178 5.846 0.857178 12C0.857178 18.1541 5.846 23.1429 12 23.1429Z" stroke="black" stroke-width="1.71429" stroke-linecap="round" stroke-linejoin="round"/>
</svg>
