<svg width="24" height="24" viewBox="0 0 24 24" fill="none" xmlns="http://www.w3.org/2000/svg">
<g clip-path="url(#clip0_105_345)">
<path d="M5.81144 18.1885H3.32573C2.70433 18.1368 2.12507 17.8534 1.70285 17.3946C1.28062 16.9357 1.04626 16.3349 1.04626 15.7114C1.04626 15.0878 1.28062 14.4871 1.70285 14.0282C2.12507 13.5694 2.70433 13.286 3.32573 13.2342H7.26859L9.80573 10.6971L2.84573 6.41139C2.30991 6.08016 1.91984 5.55784 1.75436 4.95003C1.58888 4.34222 1.66034 3.69425 1.9543 3.13711C2.08407 2.81826 2.27778 2.52937 2.5235 2.28828C2.76922 2.04718 3.06173 1.85899 3.38299 1.7353C3.70425 1.61162 4.04744 1.55506 4.3914 1.56913C4.73536 1.5832 5.07279 1.6676 5.38287 1.81711L14.4686 6.01711L18.8572 1.57711C19.33 1.10426 19.9713 0.838623 20.64 0.838623C21.3087 0.838623 21.95 1.10426 22.4229 1.57711C22.8957 2.04995 23.1614 2.69126 23.1614 3.35996C23.1614 4.02867 22.8957 4.66998 22.4229 5.14282L17.9829 9.53139L22.1829 18.7028C22.321 19.0082 22.3964 19.3383 22.4046 19.6734C22.4128 20.0085 22.3535 20.3419 22.2304 20.6536C22.1073 20.9654 21.9228 21.2493 21.6879 21.4884C21.453 21.7276 21.1724 21.9171 20.8629 22.0457C20.3057 22.3396 19.6578 22.4111 19.0499 22.2456C18.4421 22.0801 17.9198 21.6901 17.5886 21.1543L13.3029 14.1942L10.7657 16.7314V20.6743C10.714 21.2956 10.4306 21.8749 9.97175 22.2971C9.51291 22.7194 8.91214 22.9537 8.28859 22.9537C7.66504 22.9537 7.06426 22.7194 6.60542 22.2971C6.14658 21.8749 5.86318 21.2956 5.81144 20.6743V18.1885Z" stroke="black" stroke-width="1.71429" stroke-linecap="round" stroke-linejoin="round"/>
</g>
<defs>
<clipPath id="clip0_105_345">
<rect width="24" height="24" fill="white"/>
</clipPath>
</defs>
</svg>
