<svg width="24" height="24" viewBox="0 0 24 24" fill="none" xmlns="http://www.w3.org/2000/svg">
<path d="M21.4286 5.14282H2.57146C1.62469 5.14282 0.857178 5.91033 0.857178 6.85711V12C0.857178 12.9467 1.62469 13.7143 2.57146 13.7143H21.4286C22.3754 13.7143 23.1429 12.9467 23.1429 12V6.85711C23.1429 5.91033 22.3754 5.14282 21.4286 5.14282Z" stroke="black" stroke-width="1.71429" stroke-linecap="round" stroke-linejoin="round"/>
<path d="M21.4286 13.7144V21.4286C21.4286 21.8833 21.2479 22.3193 20.9265 22.6408C20.605 22.9623 20.1689 23.1429 19.7143 23.1429H4.2857C3.83104 23.1429 3.395 22.9623 3.07351 22.6408C2.75202 22.3193 2.57141 21.8833 2.57141 21.4286V13.7144" stroke="black" stroke-width="1.71429" stroke-linecap="round" stroke-linejoin="round"/>
<path d="M12 5.14282V23.1428" stroke="black" stroke-width="1.71429" stroke-linecap="round" stroke-linejoin="round"/>
<path d="M17.1429 0.857178L12 5.14289L6.85718 0.857178" stroke="black" stroke-width="1.71429" stroke-linecap="round" stroke-linejoin="round"/>
</svg>
