<svg width="1118" height="1117" viewBox="0 0 1118 1117" fill="none" xmlns="http://www.w3.org/2000/svg">
<path fill-rule="evenodd" clip-rule="evenodd" d="M888.844 853.265C1077.11 851.526 1113.22 950.232 767.212 929.216C707.171 925.57 611.935 896.478 533.355 890.816C448.484 884.699 283.225 893.545 257.983 892.523C158.369 888.475 98.6713 850.976 385.481 853.265C490.786 854.103 794.303 854.134 888.844 853.265Z" fill="#F6F6F6"/>
<path d="M867.899 917.527C900.476 917.527 926.886 913.692 926.886 908.96C926.886 904.229 900.476 900.393 867.899 900.393C835.321 900.393 808.912 904.229 808.912 908.96C808.912 913.692 835.321 917.527 867.899 917.527Z" fill="black" fill-opacity="0.2"/>
<path d="M555.965 870.662C581.098 870.662 601.473 867.779 601.473 864.224C601.473 860.668 581.098 857.785 555.965 857.785C530.831 857.785 510.456 860.668 510.456 864.224C510.456 867.779 530.831 870.662 555.965 870.662Z" fill="black" fill-opacity="0.2"/>
<path fill-rule="evenodd" clip-rule="evenodd" d="M986.949 480.029C1044.78 654.108 906.82 907.994 760.649 777.193C684.131 708.726 545.696 622.011 447.302 679.464C58.0309 906.783 31.5455 516.889 151.368 538.977C475.665 598.757 453.014 447.144 530.249 330.403C633.253 174.714 908.404 243.567 986.949 480.029Z" fill="#F6F6F6"/>
<path d="M273.497 884.445C297.971 884.445 317.811 881.359 317.811 877.552C317.811 873.745 297.971 870.659 273.497 870.659C249.023 870.659 229.183 873.745 229.183 877.552C229.183 881.359 249.023 884.445 273.497 884.445Z" fill="black" fill-opacity="0.2"/>
<path d="M318.972 860.317C317.342 858.406 315.851 856.382 314.509 854.26C310.104 847.585 307.435 840.654 305.386 832.089C301.247 816.567 300.524 800.332 303.269 784.504C303.489 785.842 303.542 787.131 303.706 788.543C303.757 790.513 304.761 791.766 305.71 793.095C306.437 794.174 306.654 795.785 307.547 797.051C309.056 798.863 311.739 798.572 313.201 796.507C314.258 796.909 315.411 796.982 316.511 796.718C317.61 796.453 318.603 795.863 319.362 795.024C320.765 793.442 321.555 791.314 322.176 789.135C322.288 788.576 322.403 788.021 322.46 787.538C323.634 788.433 325.087 788.957 326.433 787.722C328.901 785.684 329.359 781.684 328.864 778.537C328.675 777.267 328.34 776.023 327.865 774.83L327.977 774.818C330.442 773.871 329.949 769.905 328.946 767.97C328.213 766.263 327.237 764.671 326.047 763.244C326.274 762.796 326.335 762.283 326.219 761.795C325.947 758.759 323.545 756.771 321.364 755.985C318.681 754.913 315.042 755.102 313.254 753.66C312.526 752.954 311.989 752.074 311.693 751.104C311.582 750.98 311.582 750.844 311.526 750.645C311.767 750.068 311.974 749.477 312.146 748.876C315.865 739.347 319.58 730.908 324.862 722.982C325.001 723.921 325.074 724.869 325.079 725.819C325.016 728.346 324.673 731.241 326.348 732.97C328.301 735.278 331.714 735.114 333.236 731.748C334.136 729.88 334.198 727.626 335.21 725.746C335.502 725.183 335.84 724.645 336.221 724.138C336.832 726.047 336.209 729.043 335.588 731.222C334.005 737.114 329.461 741.079 327.654 747.131C327.144 749.707 328.709 750.765 330.277 750.458C329.992 752.464 329.651 754.408 329.926 756.353C330.865 761.36 334.609 763.748 338.643 762.359C338.75 764.118 338.857 765.877 339.47 767.378C340.692 770.788 343.932 773.298 347.184 771.993C348.442 771.393 349.524 770.479 350.325 769.338C352.162 773.43 352.706 779.774 357.406 780.356C358.859 780.744 360.429 780.165 361.608 778.88C362.424 779.297 363.287 779.616 364.179 779.83C365.912 779.983 367.595 779.12 369.054 777.874C373.935 773.464 373.563 765.671 371.73 760.08C371.73 759.944 371.674 759.882 371.674 759.744C371.842 759.658 372.009 759.708 372.177 759.622C378.23 756.652 374.052 748.726 370.813 745.942L370.421 745.508C374.012 742.259 371.17 737.322 367.594 734.712C366.924 734.239 366.365 733.618 365.694 733.146C366.559 732.332 367.149 731.268 367.381 730.103C368.004 727.243 366.051 725.072 364.206 724.112C363.051 723.594 361.854 723.177 360.628 722.864C360.889 722.416 361.014 721.902 360.985 721.384C360.956 720.867 360.777 720.369 360.468 719.953C359.129 718.19 356.834 717.825 354.822 718.043C354.095 718.19 353.424 718.399 352.638 718.62C351.967 717.602 349.787 717.634 348.61 717.829C345.474 718.168 343.064 719.314 340.605 718.218C338.425 717.159 337.423 714.816 336.366 712.273C335.98 711.217 335.665 710.136 335.422 709.038C340.532 702.696 345.809 696.813 351.309 691.043C351.771 692.914 351.974 694.84 351.91 696.767C351.844 700.791 350.592 708.556 355.463 708.098C356.238 707.912 356.952 707.53 357.537 706.989C358.147 709.169 358.925 711.402 360.32 712.954C362.608 715.908 368.202 716.531 369.727 711.665C370.091 710.225 370.147 708.724 369.89 707.261C369.634 705.798 369.071 704.406 368.238 703.176C366.956 701.203 363.883 698.742 365.174 697.306C365.398 697.01 365.957 697.085 366.91 697.187C367.386 697.311 367.872 697.395 368.363 697.439C369.16 700.456 370.479 703.31 372.26 705.872C375.718 710.674 379.794 714.661 383.701 718.87C385.989 721.279 389.226 725.152 392.648 722.126C393.29 721.484 393.705 720.65 393.83 719.751C395.731 721.044 397.687 722.399 399.979 722.355C403.281 722.475 404.524 718.118 404.308 714.736C404.28 714.555 404.28 714.371 404.308 714.191C406.489 715.249 408.836 715.677 410.693 712.956C413.898 707.229 412.412 697.105 407.662 694.144C407.327 693.908 406.936 693.746 406.6 693.51C406.92 693.065 407.132 692.553 407.22 692.012C407.843 689.017 406.003 686.422 403.991 685.278C402.705 684.668 401.308 684.751 399.906 684.698C399.84 684.203 399.603 683.747 399.236 683.408C397.782 682.066 395.882 681.863 394.093 681.512C396.724 681.159 398.966 680.1 400.426 678.035C400.912 677.248 401.256 676.38 401.44 675.473C404.071 675.257 406.816 674.756 409.059 672.879C411.414 671.262 412.823 667.772 411.71 665.169C413.119 664.721 414.404 663.953 415.466 662.924C419.619 658.661 418.793 653.097 414.323 650.174C413.462 649.595 412.52 649.145 411.528 648.841C415.341 646.25 419.659 643.263 420.513 637.518C421.135 634.794 420.359 632.017 418.628 630.502C414.659 627.595 409.509 628.694 404.859 630.355C405.429 629.244 405.756 628.025 405.819 626.778C406.053 622.802 402.31 620.141 399.286 620.74C397.515 621.031 395.841 621.75 394.411 622.833L394.355 622.908C394.366 618.547 391.118 619.035 387.808 621.913C384.612 624.37 382.084 627.98 380.059 631.877C379.112 630.14 377.32 630.47 375.804 632.201L375.524 632.572C376.37 630.096 376.32 627.718 373.636 626.646C373.299 626.507 372.939 626.431 372.574 626.423C373.925 623.416 375.165 620.149 374.501 616.952C373.726 613.765 370.365 613.856 368.236 615.585C368.213 615.627 368.181 615.663 368.142 615.69C368.103 615.718 368.059 615.737 368.012 615.746C368.185 613.888 368.582 612.006 367.97 610.369C366.636 606.7 362.552 605.71 359.747 608.465C359.435 608.763 359.154 609.09 358.905 609.442C354.489 607.944 350.832 614.265 349.868 619.205C348.806 618.025 347.576 617.341 346.064 618.255C342.756 620.314 341.569 625.143 341.278 629.193C341.192 630.144 341.19 631.102 341.271 632.054C340.69 632.235 340.165 632.56 339.743 632.998C339.321 633.437 339.016 633.975 338.858 634.562C337.161 641.693 341.733 648.282 343.903 653.429C344.508 654.905 345.009 656.421 345.403 657.966C344.13 657.007 342.582 656.482 340.987 656.468C340.171 656.48 339.383 656.774 338.759 657.301C338.135 657.828 337.713 658.555 337.566 659.358C337.476 660.352 337.688 661.35 338.174 662.222C338.645 663.46 339.282 664.628 340.068 665.695C341.074 666.948 342.021 668.276 343.137 669.518C342.739 669.625 342.373 669.828 342.072 670.11C340.331 672.137 342.115 675.077 343.062 676.814C343.646 677.668 344.342 678.44 345.13 679.111C344.901 681.315 348.473 685.152 349.534 686.059C350.097 686.58 350.694 687.062 351.323 687.5C345.935 692.987 340.771 698.721 335.775 704.642C335.489 705.043 335.169 705.419 334.82 705.767C334.355 705.506 333.869 705.285 333.367 705.106C332.646 704.821 331.968 704.436 331.355 703.962C328.895 702.32 327.057 699.042 328.689 695.531C329.365 693.96 331.329 691.909 332.174 689.842C332.358 689.263 332.414 688.65 332.338 688.047C332.263 687.444 332.057 686.864 331.735 686.348C332.805 683.985 335.385 681.935 336.175 679.261C336.294 678.749 336.269 678.213 336.102 677.714C335.936 677.216 335.634 676.773 335.231 676.435C335.622 675.643 336.075 674.777 336.469 673.985C338.268 670.794 338.954 665.407 334.754 665.929C334.531 665.953 334.363 666.041 334.139 666.064C334.881 660.603 337.643 653.017 331.602 651.49C331.157 651.425 330.705 651.428 330.261 651.499C331.051 648.825 332.066 645.991 331.401 643.202C330.685 638.716 325.983 639.088 323.179 641.162C322.557 641.607 321.992 642.126 321.495 642.706C320.834 638.691 319.332 634.971 315.694 635.16C308.863 636.035 305.707 644.276 304.961 651.645C304.905 651.991 304.905 652.264 304.849 652.611C304.67 652.546 304.48 652.52 304.29 652.535C302.333 652.27 300.312 653.989 299.02 655.829C296.097 660.504 297.089 666.663 298.589 671.337C298.645 671.535 298.756 671.659 298.812 671.858C297.13 672.857 296.396 675.456 296.727 677.464C296.992 678.789 297.564 680.033 298.397 681.097C299.035 681.936 299.858 682.616 300.801 683.086C300.738 683.591 300.797 684.104 300.971 684.582C301.144 685.061 301.429 685.491 301.801 685.838C303.311 687.515 305.77 688.61 307.108 689.964C307.873 690.949 308.563 691.99 309.171 693.078C306.704 694.979 305.016 698.159 306.239 701.569C308.182 707.83 313.881 711.845 319.536 711.166C322.336 710.863 325.14 708.517 327.268 708.151C328.162 708.053 329.056 708.638 329.671 709.593C330.007 710.102 330.174 710.561 330.398 710.946C325.288 717.423 320.345 724.224 316.575 731.919C315.225 734.517 313.987 737.239 312.748 739.961C310.058 741.614 307.595 741.335 305.585 739.373C303.576 737.002 304.314 733.04 303.932 729.335C303.717 727.66 303.086 726.065 302.096 724.695C301.034 723.789 299.469 723.277 298.124 723.969C297.854 722.825 297.23 721.797 296.341 721.028C294.552 719.587 292.089 719.989 291.076 722.142C289.847 720.776 288.449 719.77 286.66 719.691C283.862 719.312 281.618 721.462 281.387 724.484C279.995 724.418 278.619 724.806 277.466 725.588C273.821 728.094 272.013 734.555 274.691 738.216L274.803 738.341C272.502 740.428 271.317 744.302 275.01 744.993C276.506 745.182 278.027 744.995 279.433 744.447C278.828 745.896 278.557 747.462 278.638 749.03C278.637 749.799 278.887 750.547 279.35 751.161C279.814 751.775 280.464 752.221 281.204 752.431C282.266 752.654 283.443 752.325 284.508 752.006C284.741 751.91 284.965 751.795 285.178 751.66C285.167 756.021 288.858 757.393 293.116 754.753C293.497 754.498 293.854 754.208 294.182 753.889C294.996 754.093 295.844 754.128 296.672 753.992C297.5 753.855 298.292 753.55 298.997 753.095C300.063 752.369 300.794 750.994 301.413 749.769C302.82 746.825 302.662 742.823 305.18 743.164C306.318 743.171 307.435 743.473 308.422 744.04C309.149 744.302 309.82 745.183 310.602 744.826C310.152 745.964 309.645 747.177 309.25 748.377C309.112 748.448 308.996 748.554 308.915 748.686C307.953 752.4 304.536 753.654 301.954 756.522C300.388 758.244 299.2 760.275 298.468 762.484C298.341 762.825 298.248 763.177 298.188 763.536C296.28 765.649 294.201 768.666 295.314 771.134C295.558 771.585 295.88 771.988 296.264 772.326C295.794 774.14 295.656 776.024 295.859 777.887C295.965 780.191 296.294 782.608 297.298 783.997C294.777 784.747 292.834 778.623 288.692 778.661C288.159 778.582 287.615 778.625 287.1 778.787C286.586 778.949 286.115 779.225 285.723 779.595C281.978 778.57 279.102 785.896 282.059 789.868C282.727 790.596 283.606 791.097 284.574 791.299C284.492 791.82 284.548 792.354 284.738 792.847C285.8 794.3 287.645 793.895 289.16 793.119C290.051 794.657 292.122 794.773 293.579 793.935C294.925 792.972 295.769 791.178 296.836 789.769C297.228 789.113 298.239 788.323 298.407 788.371L299.581 788.04C298.665 794.482 298.305 800.991 298.506 807.495C298.82 816.179 300.365 824.594 302.36 832.688C304.353 841.327 307.69 849.412 312.375 856.125C313.714 858.026 315.164 859.911 316.615 861.659C316.742 861.858 316.933 862.008 317.157 862.082C317.381 862.157 317.623 862.154 317.845 862.071C319.972 862.252 319.977 861.162 318.972 860.317ZM361.717 669.959C361.853 666.451 363.053 663.067 365.156 660.256C365.419 659.876 365.72 659.524 366.054 659.205C365.653 662.995 365.475 666.76 365.242 670.463C365.126 671.973 365.066 673.548 364.95 675.058C364.503 675.515 363.997 675.91 363.604 676.293C363.487 676.195 363.408 676.059 363.381 675.909C362.37 674.082 361.8 672.045 361.717 669.959V669.959ZM366.888 683.635C365.761 682.851 364.81 681.841 364.097 680.667C363.845 680.253 363.621 679.822 363.426 679.377C363.594 679.428 363.873 679.329 364.041 679.377C364.991 679.206 365.327 679.17 366.337 679.062C368.323 678.814 370.329 678.756 372.326 678.89C375.46 679.097 380.27 680.484 385.082 681.327L384.076 681.435C380.379 682.243 376.233 684.19 373.041 684.466C370.58 684.462 368.788 684.656 366.888 683.635V683.635Z" fill="#319991"/>
<path d="M337.42 816.602C334.376 816.715 331.329 816.611 328.3 816.291C318.633 815.459 310.03 812.783 300.338 808.288C282.454 800.547 266.462 789.018 253.466 774.496C254.906 775.294 256.171 776.213 257.639 777.12C259.551 778.553 261.5 778.541 263.477 778.638C265.05 778.761 266.748 779.764 268.624 779.868C271.482 779.798 273.228 777.022 272.362 774.079C274.605 772.826 275.975 770.185 275.586 767.1C275.139 764.575 273.705 762.222 272.1 759.991C271.653 759.464 271.211 758.937 270.794 758.519C272.527 758.076 274.121 757.087 273.959 754.876C273.877 750.995 270.416 747.549 267.048 745.653C265.697 744.877 264.262 744.26 262.77 743.814L262.842 743.698C263.796 740.639 259.652 738.125 257.056 737.623C254.88 737.036 252.63 736.767 250.377 736.825C250.122 736.272 249.679 735.828 249.127 735.571C246.034 733.546 242.335 734.335 239.946 735.819C236.906 737.566 234.348 741.17 231.632 741.787C230.412 741.948 229.171 741.797 228.026 741.349C227.826 741.333 227.633 741.269 227.463 741.162C227.095 740.498 226.689 739.856 226.246 739.24C219.977 728.532 214.744 718.646 211.175 707.657C212.174 708.231 213.131 708.875 214.038 709.585C216.396 711.546 218.894 714.053 221.797 713.758C225.464 713.637 227.877 710.264 225.818 706.285C224.718 704.023 222.619 702.268 221.592 699.89C221.276 699.188 221.019 698.462 220.823 697.718C223.1 698.573 225.482 701.42 227.084 703.651C231.5 709.59 231.854 716.899 236.252 723.171C238.32 725.594 240.5 724.901 241.39 723.179C243.084 724.959 244.678 726.746 246.736 727.949C252.207 730.823 257.296 729.057 259.009 724.174C260.764 725.395 262.519 726.617 264.407 727.163C268.571 728.566 273.398 727.372 274.602 723.298C274.978 721.649 274.922 719.931 274.439 718.311C279.715 719.643 286.16 723.901 290.251 719.864C291.714 718.772 292.344 716.845 292.008 714.756C293.019 714.292 293.972 713.711 294.846 713.023C296.299 711.487 296.741 709.239 296.652 706.912C296.128 698.95 288.434 693.44 281.734 690.976C281.605 690.873 281.503 690.88 281.374 690.777C281.418 690.553 281.592 690.43 281.637 690.205C283.365 682.211 272.68 680.222 267.594 681.21L266.887 681.255C266.495 675.394 259.66 674.383 254.486 675.821C253.532 676.1 252.522 676.168 251.567 676.45C251.444 675.014 250.875 673.652 249.941 672.555C247.689 669.81 244.152 670.034 241.851 671.068C240.489 671.778 239.191 672.603 237.971 673.535C237.741 672.949 237.345 672.444 236.831 672.082C236.317 671.72 235.708 671.516 235.08 671.496C232.396 671.445 230.322 673.352 229.012 675.434C228.604 676.237 228.297 677.035 227.917 677.947C226.446 677.818 224.833 679.919 224.134 681.185C222.097 684.423 221.375 687.578 218.48 689.094C215.832 690.372 212.849 689.562 209.634 688.654C208.339 688.227 207.073 687.713 205.846 687.117C203.657 677.483 202.029 668.036 200.677 658.46C202.805 659.428 204.79 660.685 206.576 662.195C210.357 665.288 216.805 672.32 220.031 667.338C220.437 666.461 220.61 665.493 220.534 664.53C223.069 665.592 225.778 666.53 228.305 666.37C232.837 666.416 237.64 661.559 234.156 656.449C233.06 655.019 231.674 653.837 230.089 652.98C228.503 652.123 226.755 651.612 224.958 651.479C222.116 651.214 217.463 652.287 217.07 649.979C216.958 649.542 217.45 649.067 218.262 648.238C218.739 647.878 219.186 647.478 219.596 647.043C223.066 648.555 226.774 649.447 230.552 649.681C237.724 650.004 244.583 649.126 251.53 648.575C255.545 648.21 261.665 648.045 261.36 642.512C261.233 641.418 260.751 640.395 259.989 639.6C262.649 638.765 265.411 637.923 267.096 635.708C269.695 632.656 266.484 628.195 263.103 625.855C262.911 625.745 262.736 625.606 262.586 625.443C265.234 624.165 267.408 622.251 266.215 618.439C263.177 611.08 252.425 604.875 246.035 607.168C245.558 607.309 245.109 607.559 244.632 607.701C244.449 607.062 244.121 606.475 243.674 605.985C241.292 603.137 237.439 602.936 234.836 603.99C233.287 604.754 232.314 606.148 231.21 607.44C230.689 607.129 230.076 607.01 229.477 607.104C227.108 607.476 225.484 609.133 223.802 610.57C225.447 607.801 226.126 604.868 225.26 601.927C224.875 600.871 224.307 599.892 223.583 599.034C225.357 596.367 226.944 593.38 226.847 589.832C227.081 586.375 224.82 582.409 221.504 581.509C222.139 579.831 222.376 578.029 222.195 576.245C221.263 569.086 215.347 565.684 209.203 567.739C208.004 568.122 206.868 568.681 205.832 569.396C206.235 563.818 206.642 557.463 201.817 552.326C199.693 549.684 196.468 548.334 193.723 548.841C187.97 550.427 185.142 556.158 183.223 561.832C182.594 560.453 181.679 559.224 180.54 558.226C176.933 555.011 171.584 556.572 169.88 559.903C168.824 561.807 168.248 563.94 168.203 566.117L168.231 566.229C164.091 562.938 162.11 566.397 162.358 571.707C162.291 576.598 163.824 581.721 166.008 586.579C163.643 586.174 162.609 588.127 163.114 590.871L163.256 591.417C161.537 588.75 159.236 587.008 156.197 588.755C155.81 588.971 155.466 589.256 155.182 589.597C153.338 586.049 151.162 582.411 147.62 580.636C144.005 578.977 141.564 582.241 141.605 585.57C141.628 585.623 141.638 585.681 141.636 585.739C141.633 585.797 141.617 585.854 141.589 585.905C139.952 584.343 138.459 582.551 136.442 581.901C131.946 580.408 127.932 583.55 128.443 588.292C128.492 588.812 128.591 589.327 128.738 589.828C123.987 592.903 127.253 601.139 131.228 605.773C129.308 605.895 127.731 606.55 127.461 608.677C126.933 613.372 130.633 618.138 134.268 621.462C135.108 622.26 136.018 622.983 136.985 623.622C136.72 624.311 136.634 625.055 136.734 625.786C136.833 626.518 137.116 627.212 137.556 627.805C143.064 634.786 152.775 635.393 159.304 637.201C161.163 637.737 162.983 638.401 164.751 639.188C162.879 639.678 161.213 640.755 159.999 642.262C159.395 643.048 159.083 644.019 159.115 645.009C159.147 646 159.521 646.948 160.175 647.693C161.052 648.527 162.162 649.076 163.357 649.268C164.889 649.752 166.481 650.025 168.087 650.08C170.035 650.067 172.012 650.164 174.033 650.036C173.836 650.496 173.754 650.997 173.795 651.495C174.415 654.677 178.555 655.192 180.92 655.597C182.171 655.685 183.429 655.605 184.659 655.361C186.584 657.238 192.923 656.726 194.585 656.399C195.503 656.257 196.411 656.051 197.301 655.784C198.468 665.038 200.04 674.267 201.912 683.476C202.079 684.05 202.196 684.637 202.265 685.231C201.666 685.477 201.09 685.774 200.542 686.117C199.728 686.589 198.852 686.944 197.939 687.171C194.529 688.275 190.028 687.562 187.912 683.363C186.925 681.538 186.452 678.125 185.121 675.766C184.708 675.155 184.167 674.641 183.536 674.259C182.905 673.877 182.199 673.637 181.466 673.554C180.022 670.759 180.013 666.761 178.063 663.995C177.666 663.496 177.137 663.117 176.537 662.9C175.937 662.683 175.288 662.636 174.663 662.765C174.206 661.795 173.721 660.715 173.266 659.747C171.583 655.633 166.973 650.928 164.31 655.316C164.165 655.548 164.12 655.772 163.975 656.004C159.335 651.189 154.196 642.852 148.198 647.451C147.8 647.827 147.462 648.26 147.195 648.737C145.246 645.973 143.313 642.875 140.159 641.409C135.352 638.715 132.165 643.469 132.031 647.698C131.987 648.624 132.055 649.552 132.234 650.461C127.915 648.069 123.246 646.699 120.687 650.304C116.379 657.459 121.847 666.666 128.297 672.921C128.584 673.236 128.843 673.441 129.13 673.757C128.933 673.877 128.765 674.04 128.637 674.232C126.911 675.896 127.025 679.109 127.806 681.725C130.055 688.023 136.662 691.714 142.237 693.805C142.468 693.901 142.67 693.888 142.901 693.985C142.585 696.337 144.507 698.991 146.665 700.189C148.126 700.934 149.74 701.326 151.379 701.335C152.657 701.358 153.922 701.088 155.079 700.546C155.968 701.6 157.339 701.735 158.451 701.664C161.179 701.491 164.074 699.975 166.37 699.719C167.883 699.732 169.392 699.859 170.886 700.099C170.838 703.878 172.593 707.876 176.755 709.278C184.174 712.14 192.284 709.739 195.893 703.847C197.711 700.955 197.589 696.521 198.842 694.221C199.424 693.295 200.652 692.884 202.023 693.02C202.759 693.085 203.321 693.271 203.854 693.348C206.173 703.085 208.925 712.906 213.411 722.283C214.867 725.526 216.525 728.749 218.183 731.976C217.731 735.78 215.612 737.913 212.233 738.348C208.466 738.476 205.251 734.793 201.438 732.367C199.682 731.312 197.691 730.712 195.644 730.624C193.982 730.951 192.317 732.056 191.962 733.855C190.67 733.252 189.222 733.072 187.822 733.34C185.106 733.955 183.634 736.603 184.921 739.187C182.697 739.328 180.688 739.899 179.265 741.544C176.799 743.921 177.156 747.674 179.858 750.169C178.748 751.444 178.081 753.045 177.957 754.731C177.599 760.084 182.387 766.666 187.885 766.874L188.087 766.861C188.343 770.62 191.137 774.663 194.572 771.668C195.879 770.387 196.844 768.799 197.381 767.049C198.304 768.714 199.589 770.15 201.141 771.253C201.872 771.832 202.772 772.157 203.705 772.178C204.637 772.199 205.551 771.915 206.308 771.37C207.322 770.531 207.892 769.159 208.389 767.907C208.474 767.612 208.534 767.311 208.567 767.007C212.707 770.299 216.79 767.819 217.484 761.778C217.528 761.224 217.521 760.667 217.464 760.114C218.271 759.493 218.942 758.713 219.436 757.822C219.929 756.931 220.234 755.949 220.333 754.935C220.442 753.373 219.685 751.644 218.985 750.134C217.242 746.58 213.316 743.719 215.535 741.581C216.398 740.502 217.526 739.666 218.809 739.153C219.605 738.658 220.948 738.684 221.198 737.669C221.942 738.954 222.715 740.349 223.56 741.628C223.523 741.813 223.537 742.004 223.601 742.181C226.411 745.89 225.033 750.086 225.819 754.703C226.279 757.488 227.318 760.146 228.869 762.506C229.097 762.884 229.361 763.24 229.657 763.568C230.233 766.974 231.539 771.222 234.725 772.02C235.336 772.127 235.962 772.126 236.573 772.014C237.944 773.827 239.634 775.375 241.558 776.585C243.831 778.218 246.378 779.722 248.456 779.813C247.273 782.776 239.983 780.016 236.902 783.987C236.426 784.435 236.058 784.985 235.825 785.596C235.592 786.207 235.5 786.863 235.558 787.515C231.762 790.31 236.57 798.556 242.574 798.731C243.77 798.644 244.908 798.183 245.828 797.415C246.262 797.885 246.813 798.232 247.425 798.421C249.605 798.505 250.611 796.443 251.011 794.418C253.145 794.728 254.815 792.845 255.113 790.827C255.21 788.822 254.138 786.669 253.6 784.593C253.272 783.725 253.28 782.17 253.453 782.048C253.643 781.592 253.833 781.136 254.023 780.679C259.47 786.394 265.398 791.629 271.743 796.327C280.243 802.563 289.413 807.424 298.616 811.617C308.335 816.221 318.54 819.129 328.453 819.722C331.267 819.877 334.155 819.917 336.91 819.853C337.195 819.882 337.482 819.812 337.722 819.655C337.961 819.499 338.14 819.265 338.229 818.992C340.016 817.104 338.981 816.281 337.42 816.602ZM188.454 632.691C185.218 629.922 182.901 626.234 181.809 622.117C181.645 621.581 181.537 621.03 181.485 620.472C184.789 623.705 188.238 626.708 191.586 629.716C192.937 630.963 194.388 632.204 195.739 633.452C195.836 634.222 195.832 635 195.902 635.662C195.72 635.699 195.531 635.672 195.368 635.585C192.869 635.172 190.501 634.18 188.454 632.689V632.691ZM205.358 638.062C203.764 638.545 202.087 638.689 200.434 638.485C199.851 638.411 199.273 638.299 198.704 638.149C198.878 638.027 198.994 637.687 199.168 637.565C199.722 636.53 199.94 636.183 200.595 635.143C201.854 633.066 203.309 631.114 204.939 629.315C207.494 626.488 212.433 622.955 216.856 619.01C216.637 619.357 216.419 619.704 216.2 620.051C214.188 624.176 212.92 629.587 210.782 632.832C208.923 635.169 207.759 637.02 205.358 638.06V638.062Z" fill="#43C3B9"/>
<path d="M296.319 793.014C298.219 790.544 300.243 788.699 302.196 785.937C302.252 785.858 302.308 785.707 302.368 785.628C307.658 782.197 313.939 778.276 319.153 773.714C327.377 766.461 334.456 757.365 340.821 747.795C348.974 736.128 355.16 722.801 359.513 708.725C361.176 702.576 366.655 689.133 362.755 684.312C358.954 681.833 349.195 688.653 345.42 691.307C330.256 702.619 317.892 717.261 309.28 734.105C303.594 745.722 301.82 759.447 303.61 771.904C303.833 774.727 304.183 778.246 303.582 780.968C303.148 782.45 302.498 783.861 301.652 785.154C301.545 785.226 301.448 785.311 301.363 785.407C301.29 785.518 301.251 785.647 301.251 785.78C300.118 787.288 298.885 788.719 297.561 790.063C297.215 790.466 296.871 790.941 296.525 791.345C296.661 788.901 296.798 786.456 296.874 783.949C296.879 773.461 295.771 763.195 294.781 752.914C294.34 747.48 293.839 741.984 293.222 736.574C297.088 732.269 301.136 728.292 304.643 723.605C312.012 713.869 318.451 703.463 323.877 692.524C330.859 677.52 339.367 662.45 341.617 645.522C341.735 641.939 342.049 635.975 338.97 634.538C338.262 634.349 337.505 634.738 336.806 635.118L332.265 637.662C328.072 639.785 324.249 642.569 320.942 645.908C307.478 659.725 297.306 680.87 294.054 701.288C292.736 710.528 293.064 719.83 292.157 729.085V729.156C291.962 727.97 291.766 726.783 291.514 725.676C289.597 716.234 286.687 707.141 284.77 697.699C283.752 692.915 282.791 688.051 281.773 683.267V683.196C281.796 681.052 281.769 679.344 282.268 677.563C283.219 674.581 285.811 671.446 287.756 668.185C292.159 660.806 295.138 652.484 298.592 644.523C304.07 631.079 309.134 617.334 311.835 602.841C312.538 599.364 313.01 595.843 313.25 592.304C313.7 587.463 310.307 588.352 307.694 590.277C302.461 593.875 297.815 598.261 293.923 603.279C290.475 608.03 288.221 613.829 286.021 619.479C282.809 627.906 279.72 636.602 278.515 645.612C277.983 650.8 278.069 656.034 278.77 661.202C279.136 665.647 280.377 669.688 281.444 673.823C281.689 674.432 281.646 675.436 281.947 676.037C281.589 676.823 281.326 677.649 281.164 678.497C281.112 678.932 281.061 679.367 281.009 679.802C280.25 676.481 279.492 673.231 278.616 669.997C276.38 662.596 273.627 655.907 271.338 648.798C269.182 642.742 266.618 636.883 264.347 630.914C264.389 630.782 264.445 630.654 264.515 630.534C264.756 630.033 265.022 629.544 265.314 629.07C267.093 626.474 269.29 624.319 271.189 621.85C273.722 618.652 276.374 615.58 278.668 612.129C281.073 608.282 283.245 604.294 285.171 600.187C289.783 591.141 292.615 581.125 294.624 571.007C295.329 567.415 295.624 563.879 296.101 560.675C296.312 559.222 296.522 557.693 296.616 556.253C296.605 555.612 296.591 554.758 296.057 554.474C295.347 554.142 294.715 555.013 294.194 555.512C292.864 556.834 291.533 558.086 290.201 559.266C286.606 562.18 282.71 564.636 279.478 568.215C273.37 574.73 269.013 582.686 266.812 591.34C265.338 598.247 265.746 605.254 265.741 612.104C265.689 616.107 265.696 620.172 264.991 623.764C264.668 625.591 264.169 627.372 263.729 629.215C262.304 625.382 261.083 621.475 260.071 617.513C259.882 616.709 259.752 615.892 259.68 615.069C259.834 614.793 259.929 614.489 259.96 614.174C260.062 613.473 260.228 612.781 260.455 612.11C261.508 608.256 262.797 604.442 263.379 600.511C263.79 596.887 263.323 593.313 263.145 589.77C262.705 583.249 261.814 576.767 260.478 570.37C256.81 555.315 251.996 540.563 246.076 526.243C245.471 525.181 244.567 520.17 243.239 521.563C241.82 524.61 241.055 528.138 239.991 531.351C235.487 547.017 236.172 563.76 239.998 578.58C241.147 582.938 242.551 587.226 244.203 591.42C245.975 595.603 248.328 599.35 250.447 603.2C252.446 606.852 254.618 610.411 257.368 613.245C257.692 613.612 258.051 613.945 258.441 614.241C259.019 618.784 260.056 623.256 261.538 627.589C254.812 618.658 250.663 605.667 241.166 599.751C236.89 596.908 232.047 595.355 227.098 594.529C223.353 593.703 219.495 593.528 215.691 594.011C213.817 594.409 211.817 594.253 210.072 595.346C207.707 598.022 210.945 602.005 212.443 603.799C215.316 607.047 218.822 609.424 222.208 611.746C225.239 613.831 228.153 616.003 231.355 617.779C230.413 624.828 229.355 632.034 230.646 639.137C233.05 653.364 240.373 666.28 251.22 672.154C254.539 673.914 258.246 674.266 261.841 674.919C263.955 675.256 265.96 676.083 267.697 677.333C270.971 679.956 274.362 682.491 278.091 684.196C278.374 684.352 278.671 684.478 278.978 684.574C280.264 691.178 281.428 697.868 282.828 704.456C284.86 713.739 287.417 722.809 288.749 732.402C289.018 734.506 289.288 736.609 289.497 738.65C284.913 727.858 281.55 716.115 275.574 706.369C271.605 700.031 267.084 694.057 262.063 688.515C258.658 685.055 255.128 681.182 250.696 679.645C243.254 677.232 235.118 679.124 227.66 679.353C225.617 680.201 227.318 683.608 227.753 685.047C230.762 693.057 235.973 699.126 241.122 704.99C246.213 710.932 251.016 717.2 256.624 722.43C260.807 726.713 265.847 729.524 270.941 732.042C274.614 733.968 278.061 736.353 281.566 738.659C284.18 740.417 286.983 741.879 289.921 743.016C290.348 747.595 290.716 752.112 291.084 756.699C291.875 765.509 292.593 773.545 292.738 782.443C292.759 787.292 292.544 792.101 292.211 796.927C288.466 794.226 286.674 788.833 284.593 783.765C281.597 776.61 277.847 769.985 273.981 763.519C270.056 757.061 265.676 751.45 261.758 745.419C256.389 736.874 250.732 728.583 244.266 721.257C241.274 717.954 237.763 715.22 233.746 713.841C230.961 712.436 230.708 714.896 231.106 717.696C233.617 731.124 234.438 745.422 239.572 757.639C241.58 762.554 243.955 767.311 246.679 771.869C248.553 775.111 250.487 778.414 252.996 780.998C259.387 787.406 267.271 791.685 275.363 794.294C278.2 795.336 281.197 795.356 284.195 795.376C285.629 795.42 287.065 795.32 288.479 795.08L288.773 795.039C289.36 795.858 290.042 796.604 290.806 797.26C291.213 797.62 291.651 797.943 292.115 798.224C291.387 807.24 290.041 816.194 288.087 825.026C287.517 822.527 286.649 820.106 285.501 817.815C284.206 815.522 282.357 813.59 280.122 812.196C274.967 809.544 269.674 809.194 264.694 806.446C260.37 804.322 257.091 801.345 253.333 797.932C250.947 795.759 248.558 793.373 245.603 792.277C240.639 790.526 235.112 793.846 230.884 797.631C229.322 799.128 227.701 800.632 226.259 802.255C224.938 804.076 225.968 806.005 227.104 807.206C229.494 809.663 232.512 810.965 235.583 811.974C239.199 813.166 242.751 814.54 246.227 816.092C250.373 818.168 254.64 820.37 259.489 818.712C262.296 817.902 264.799 816.35 267.315 815.864C272.652 815.281 277.082 820.315 281.264 824.529C282.551 825.803 284.115 826.762 285.833 827.332C286.397 827.541 287.004 827.606 287.599 827.52C286.065 834.363 284.651 841.262 282.645 847.956C282.421 848.699 282.421 848.557 282.142 849.38V849.522C282.142 849.593 282.142 849.593 282.086 849.673V849.744C282.03 850.037 282.154 850.303 282.39 850.345C283.077 850.376 283.762 850.234 284.38 849.931C285.209 850.318 286.143 846.338 286.37 845.808C287.651 841.567 288.755 837.208 289.861 832.919C291.134 832.874 292.387 832.582 293.55 832.061C294.616 831.477 295.593 830.743 296.452 829.881C296.574 830.15 296.984 830.094 297.334 829.975C299.208 829.578 301.151 829.813 303.264 829.668C305.704 829.454 308.131 829.1 310.531 828.606C316.443 827.232 322.096 824.466 327.564 821.082C337.011 815.683 345.17 808.292 351.476 799.424C353.712 796.052 356.123 792.585 357.113 788.455C357.275 787.577 357.61 786.462 357.07 785.821C356.531 785.181 355.598 785.593 354.89 785.475C353.572 785.505 352.254 785.422 350.95 785.227C346.177 784.378 341.347 783.606 336.374 784.925C326.191 787.381 312.699 799.488 307.121 810.52C304.493 815.301 302.824 820.806 299.893 824.845C298.293 826.902 296.449 828.758 294.402 830.372C293.208 831.183 291.811 831.645 290.369 831.704L290.252 831.72C290.693 829.948 291.133 828.105 291.574 826.333C293.903 815.346 295.488 804.214 296.319 793.014V793.014ZM271.361 678.619C271.295 678.542 271.214 678.48 271.123 678.437C271.171 677.788 270.629 677.005 270.62 676.294C270.03 672.593 269.498 668.813 268.151 665.429C265.447 658.162 261.758 651.744 258.184 645.167C254.788 638.708 250.698 632.843 246.896 626.725L245.085 623.762C246.445 624.291 247.747 624.824 249.107 625.356C253.131 627.021 257.1 628.978 261.399 629.749C261.518 629.805 261.634 629.788 261.753 629.843C261.871 629.899 261.932 630.033 262.051 630.088L262.168 630.072C263.464 633.891 264.935 637.615 266.23 641.364C268.195 646.59 269.623 651.248 271.238 656.593C272.971 662.064 274.694 666.753 276.079 672.413C276.898 675.797 277.601 679.269 278.244 682.678C275.83 681.538 273.527 680.179 271.361 678.619Z" fill="#98DED9"/>
<path d="M317.568 799.35C319.204 799.262 320.657 799.532 322.423 799.339C322.474 799.334 322.551 799.296 322.602 799.291C325.88 800.638 329.716 802.309 333.385 803.092C339.195 804.3 345.253 804.021 351.217 803.13C358.638 802.259 365.931 799.532 372.807 795.444C375.72 793.525 382.788 790.352 383.102 785.966C382.583 782.713 376.353 780.455 373.937 779.588C364.345 776.413 354 776.322 344.354 779.327C337.885 781.541 332.116 786.898 328.169 793.643C327.205 795.07 326.031 796.89 324.792 797.814C324.095 798.251 323.318 798.545 322.507 798.678C322.441 798.652 322.373 798.638 322.303 798.634C322.23 798.647 322.166 798.687 322.122 798.746C321.126 798.815 320.126 798.792 319.134 798.679C318.854 798.674 318.546 798.702 318.265 798.697C319.224 797.644 320.183 796.59 321.144 795.474C325.041 790.633 328.433 785.278 331.877 779.979C333.727 777.225 335.579 774.409 337.355 771.568C340.419 771.722 343.428 772.127 346.497 771.909C352.907 771.495 359.236 770.253 365.326 768.212C373.543 765.152 382.362 762.907 389.501 756.335C390.877 754.745 393.211 752.164 392.576 749.795C392.355 749.368 391.987 749.037 391.54 748.863L388.876 747.521C386.614 746.217 384.115 745.378 381.524 745.055C371.295 743.974 359.587 748.104 350.773 755.732C346.842 759.269 343.512 763.747 339.732 767.52L339.705 767.553C340.072 766.897 340.438 766.24 340.754 765.589C343.534 760.167 345.809 754.353 348.589 748.931C349.98 746.157 351.423 743.378 352.813 740.602L352.84 740.568C353.475 739.68 354.244 738.895 355.119 738.241C356.587 737.39 358.733 737.379 360.681 736.95C365.088 735.984 369.307 733.79 373.572 732.027C380.641 728.854 387.663 725.312 394.069 720.115C395.655 718.871 397.143 717.506 398.518 716.032C400.486 714.045 398.87 712.575 397.166 712.016C393.963 710.797 390.545 710.243 387.12 710.39C384.051 710.672 381.042 712.101 378.111 713.492C373.765 715.604 369.365 717.908 365.563 721.403C363.361 723.599 361.448 726.066 359.87 728.745C358.36 731.001 357.327 733.555 356.195 736.057C356.062 736.474 355.673 736.914 355.565 737.36C355.128 737.53 354.719 737.768 354.355 738.063L353.811 738.58C354.757 736.623 355.677 734.703 356.546 732.724C358.447 728.067 359.889 723.452 361.661 718.899C363.094 714.907 364.299 710.78 365.655 706.764C365.719 706.727 365.789 706.7 365.861 706.683C366.137 706.585 366.42 706.507 366.707 706.45C368.345 706.236 369.978 706.46 371.614 706.371C373.766 706.381 375.918 706.265 378.057 706.026C380.405 705.58 382.713 704.94 384.955 704.114C390.062 702.493 394.855 699.435 399.373 695.875C400.974 694.607 402.399 693.136 403.77 691.921C404.39 691.366 405.036 690.778 405.607 690.164C405.758 690.019 405.876 689.843 405.953 689.647C406.031 689.452 406.065 689.243 406.054 689.033C405.908 688.487 405.345 688.539 404.963 688.481C403.968 688.354 402.999 688.194 402.056 688.001C399.611 687.355 397.223 686.33 394.67 686.192C389.918 685.821 385.186 687.115 381.284 689.853C378.161 692.226 375.713 695.689 373.167 698.853C371.661 700.672 370.154 702.555 368.553 703.823C367.752 704.488 366.902 705.033 366.051 705.641C366.899 703.322 367.855 700.619 369.013 698.206C369.234 697.74 369.488 697.29 369.772 696.859C369.939 696.814 370.09 696.725 370.21 696.601C370.502 696.34 370.822 696.112 371.164 695.922C372.994 694.726 374.899 693.679 376.58 692.186C378.081 690.74 379.231 688.828 380.48 687.095C382.781 683.761 384.851 680.273 386.674 676.656C390.956 667.458 394.607 657.98 397.604 648.287C397.768 647.463 399.288 644.646 398.266 644.553C396.598 645.174 394.997 646.38 393.403 647.273C385.879 652.014 379.92 660.127 375.867 669.092C374.665 671.789 373.605 674.546 372.69 677.353C371.809 680.267 371.308 683.302 370.681 686.255C370.022 689.034 369.65 691.874 369.572 694.73C369.559 695.082 369.571 695.435 369.61 695.785C368.101 698.287 366.834 700.926 365.825 703.667C366.594 695.814 369.847 687.515 368.446 679.518C367.859 675.958 366.715 672.513 365.056 669.309C363.998 666.937 362.608 664.728 360.927 662.748C360.07 661.893 359.37 660.713 358.303 660.251C356.413 660.176 356.161 663.81 356.062 665.469C356.038 668.513 356.288 671.553 356.81 674.552C357.184 677.194 357.48 679.813 358.034 682.408C355.059 685.141 351.983 687.886 349.835 691.879C345.463 699.784 343.438 709.808 345.366 718.532C345.97 721.185 347.244 723.402 348.363 725.696C349.05 727.063 349.497 728.538 349.685 730.056C349.883 733.068 350.347 736.057 351.073 738.987C351.122 739.214 351.187 739.436 351.269 739.653C349.302 743.414 347.26 747.151 345.344 750.97C342.665 756.384 340.266 761.99 337.207 767.159C336.528 768.28 335.849 769.401 335.171 770.457C337.443 762.933 340.529 755.644 341.884 747.831C342.742 742.626 343.248 737.37 343.397 732.097C343.392 728.611 343.493 724.866 342.385 721.699C340.462 716.46 336.678 712.825 333.768 708.797C332.679 708.057 332.058 710.573 331.688 711.48C329.854 716.846 329.574 722.539 329.346 728.1C329.067 733.667 328.56 739.224 328.742 744.747C328.736 749.044 329.601 753.132 330.595 757.121C331.272 760.047 331.692 763.06 332.161 766.065C332.496 768.318 333.014 770.54 333.708 772.709C332.169 775.061 330.633 777.349 329.068 779.674C326.095 784.181 323.384 788.291 320.134 792.481C318.342 794.732 316.474 796.834 314.556 798.879C314.14 795.555 315.464 792.071 316.558 788.577C318.019 783.572 319.187 778.486 320.057 773.345C320.968 768.187 321.393 763.167 322.148 758.21C323.362 751.314 324.146 744.349 324.496 737.356C324.652 734.221 324.236 731.084 323.266 728.099C322.734 725.907 321.723 726.903 320.835 728.417C316.799 736.011 311.8 743.07 309.207 751.559C308.127 755.005 307.261 758.515 306.615 762.068C306.042 764.604 305.708 767.188 305.618 769.787C305.721 776.123 306.917 782.395 309.153 788.325C309.879 790.25 310.87 792.066 312.096 793.719C312.607 794.513 313.187 795.261 313.829 795.955L313.955 796.099C313.872 796.814 313.853 797.534 313.899 798.252C313.919 798.645 313.965 799.035 314.037 799.422C310.493 803.112 306.654 806.506 302.557 809.57C303.288 808.046 303.858 806.449 304.256 804.806C304.617 802.966 304.633 801.076 304.305 799.23C303.337 795.149 301.461 792.052 300.595 788.023C299.746 784.646 299.609 781.452 299.454 777.793C299.357 775.468 299.338 773.042 298.626 770.897C297.396 767.337 294.069 765.807 291.062 765.212C289.914 765.009 288.756 764.866 287.593 764.785C286.416 764.894 286.09 766.355 286.074 767.54C286.14 769.908 286.628 772.245 287.515 774.442C288.427 777.004 289.286 779.571 290.018 782.243C290.818 785.5 291.616 788.882 294.069 790.803C295.433 791.985 296.956 792.654 298.091 793.825C300.327 796.514 300.138 801.295 300.159 805.557C300.174 806.862 300.407 808.156 300.849 809.385C300.975 809.776 301.179 810.139 301.448 810.45C298.325 812.761 295.227 815.163 291.982 817.143C291.621 817.364 291.673 817.297 291.261 817.521L291.209 817.588C291.184 817.621 291.184 817.621 291.132 817.626L291.107 817.66C291.041 817.712 290.995 817.784 290.976 817.865C290.956 817.946 290.964 818.031 290.998 818.107C291.224 818.479 291.535 818.792 291.906 819.02C292.076 819.658 293.908 818.337 294.191 818.218C296.251 816.97 298.289 815.568 300.299 814.2C300.764 814.85 301.346 815.409 302.015 815.847C302.61 816.16 303.256 816.364 303.923 816.449C303.867 816.641 304.046 816.84 304.223 816.982C305.08 817.837 305.729 819.022 306.582 820.126C307.568 821.361 308.619 822.542 309.73 823.665C316.98 830.045 326.431 833.35 336.077 832.879C338.177 832.561 340.377 832.296 342.286 830.937C342.674 830.621 343.215 830.292 343.248 829.697C343.281 829.102 342.775 828.776 342.551 828.33C342.032 827.597 341.565 826.828 341.153 826.03C339.661 822.993 338.117 819.96 335.744 817.813C330.974 813.303 321.367 811.418 315.158 813.422C312.388 814.175 309.709 815.792 307.1 816.032C305.705 816.093 304.309 815.927 302.967 815.541C302.151 815.207 301.449 814.644 300.945 813.92L300.895 813.864C301.72 813.29 302.572 812.683 303.396 812.108C308.453 808.24 313.192 803.974 317.568 799.35ZM350.594 732.681C350.597 732.609 350.59 732.536 350.571 732.466C350.83 732.193 350.916 731.531 351.176 731.196C352.424 729.178 353.463 727.039 354.276 724.809C355.95 719.955 356.936 714.945 358.025 709.927C359.137 705.063 359.765 700.085 360.596 695.153C360.734 694.362 360.873 693.571 361.011 692.78C361.33 693.778 361.626 694.746 361.942 695.743C362.848 698.741 363.624 701.845 364.968 704.585C364.992 704.676 365.043 704.734 365.067 704.825C365.091 704.916 365.067 705.011 365.088 705.104L365.139 705.16C364.212 707.642 363.386 710.178 362.485 712.626C361.288 716.129 360.099 719.072 358.726 722.435C357.351 725.924 356.262 729.044 354.684 732.427C353.737 734.444 352.714 736.437 351.693 738.368C351.201 736.499 350.834 734.599 350.594 732.681V732.681Z" fill="#42C2B9"/>
<path fill-rule="evenodd" clip-rule="evenodd" d="M244.1 824.148H355.783C355.783 824.148 348.103 838.838 340.799 852.809C336.897 860.271 331.027 866.521 323.824 870.883C316.622 875.245 308.363 877.551 299.943 877.552V877.552C291.522 877.551 283.263 875.245 276.061 870.883C268.859 866.521 262.988 860.271 259.086 852.809C251.78 838.835 244.1 824.148 244.1 824.148Z" fill="#B2B7F0"/>
<path fill-rule="evenodd" clip-rule="evenodd" d="M343.427 824.146C324.682 823.449 258.975 820.964 243.291 824.146C236.741 825.479 249.316 843.264 249.316 843.264C249.316 843.264 340.09 831.512 355.774 828.326C360.031 827.462 347.771 824.309 343.427 824.146Z" fill="black" fill-opacity="0.2"/>
<path fill-rule="evenodd" clip-rule="evenodd" d="M360.256 811.938H239.624V811.955C239.624 814.105 240.048 816.233 240.87 818.22C241.693 820.206 242.899 822.01 244.419 823.53C245.939 825.051 247.744 826.256 249.73 827.079C251.716 827.901 253.845 828.325 255.995 828.325H343.886C346.036 828.325 348.165 827.901 350.151 827.079C352.137 826.256 353.942 825.051 355.462 823.53C356.982 822.01 358.188 820.206 359.011 818.22C359.833 816.233 360.257 814.105 360.256 811.955V811.938Z" fill="#1A2283"/>
<path fill-rule="evenodd" clip-rule="evenodd" d="M859.084 265.503C859.083 257.768 856.01 250.35 850.54 244.881C845.071 239.411 837.652 236.339 829.917 236.339H679.705C671.97 236.339 664.552 239.411 659.082 244.881C653.613 250.35 650.54 257.768 650.539 265.503V265.521C650.54 273.256 653.613 280.674 659.082 286.144C664.552 291.613 671.97 294.685 679.705 294.685H829.917C837.652 294.685 845.071 291.613 850.54 286.144C856.01 280.674 859.083 273.256 859.084 265.521V265.503Z" fill="#737CE3"/>
<path fill-rule="evenodd" clip-rule="evenodd" d="M767.413 276.883C767.06 277.343 766.207 277.113 765.044 276.247C763.597 275.09 762.307 273.751 761.205 272.262L754.094 262.999C752.886 261.455 751.859 259.777 751.034 257.998C750.369 256.482 750.195 255.371 750.546 254.913C750.899 254.453 751.751 254.682 752.914 255.548C754.361 256.705 755.651 258.045 756.754 259.534L763.865 268.797C765.073 270.341 766.1 272.019 766.925 273.798C767.589 275.313 767.763 276.425 767.413 276.883Z" fill="white"/>
<path fill-rule="evenodd" clip-rule="evenodd" d="M766.995 254.848C767.348 255.308 767.172 256.418 766.507 257.934C765.682 259.713 764.655 261.39 763.447 262.934L756.336 272.197C755.234 273.686 753.943 275.026 752.497 276.183C751.333 277.049 750.481 277.278 750.128 276.818C749.776 276.36 749.951 275.249 750.616 273.733C751.441 271.955 752.468 270.277 753.676 268.733L760.788 259.47C761.889 257.981 763.18 256.641 764.626 255.484C765.79 254.618 766.643 254.389 766.995 254.848V254.848Z" fill="white"/>
<path fill-rule="evenodd" clip-rule="evenodd" d="M770.764 265.385C770.764 266.035 770.038 266.658 768.744 267.118C767.167 267.62 765.52 267.863 763.866 267.835H753.811C752.157 267.863 750.51 267.62 748.933 267.118C747.64 266.659 746.913 266.035 746.913 265.385C746.913 264.736 747.64 264.112 748.933 263.652C750.51 263.15 752.157 262.908 753.811 262.935H763.868C765.523 262.908 767.17 263.15 768.746 263.652C770.039 264.112 770.767 264.735 770.767 265.385H770.764Z" fill="white"/>
<path fill-rule="evenodd" clip-rule="evenodd" d="M731.18 276.883C730.828 277.343 729.975 277.113 728.811 276.247C727.365 275.09 726.075 273.751 724.973 272.262L717.862 262.999C716.653 261.455 715.626 259.777 714.801 257.998C714.136 256.482 713.963 255.371 714.314 254.913C714.666 254.453 715.518 254.682 716.682 255.548C718.129 256.705 719.419 258.045 720.521 259.534L727.632 268.797C728.841 270.341 729.867 272.019 730.692 273.798C731.357 275.313 731.53 276.425 731.18 276.883Z" fill="white"/>
<path fill-rule="evenodd" clip-rule="evenodd" d="M730.763 254.848C731.116 255.308 730.94 256.418 730.275 257.934C729.45 259.713 728.423 261.39 727.215 262.934L720.104 272.199C719.002 273.688 717.711 275.028 716.265 276.185C715.101 277.051 714.249 277.28 713.896 276.82C713.543 276.361 713.719 275.251 714.384 273.735C715.209 271.956 716.236 270.278 717.444 268.734L724.556 259.472C725.657 257.983 726.947 256.643 728.394 255.486C729.558 254.62 730.411 254.39 730.763 254.85V254.848Z" fill="white"/>
<path fill-rule="evenodd" clip-rule="evenodd" d="M734.532 265.385C734.532 266.035 733.805 266.658 732.511 267.118C730.935 267.62 729.288 267.863 727.634 267.835H717.577C715.922 267.863 714.275 267.62 712.698 267.118C711.405 266.659 710.678 266.035 710.678 265.385C710.678 264.736 711.405 264.112 712.698 263.652C714.275 263.15 715.922 262.908 717.577 262.935H727.634C729.288 262.908 730.935 263.15 732.511 263.652C733.804 264.112 734.532 264.735 734.532 265.385Z" fill="white"/>
<path fill-rule="evenodd" clip-rule="evenodd" d="M695.084 276.883C694.731 277.343 693.879 277.113 692.715 276.247C691.269 275.09 689.978 273.751 688.876 272.262L681.765 262.999C680.557 261.455 679.53 259.777 678.705 257.998C678.04 256.482 677.867 255.371 678.217 254.913C678.57 254.453 679.422 254.682 680.586 255.548C682.032 256.705 683.323 258.045 684.425 259.534L691.536 268.797C692.744 270.341 693.771 272.019 694.596 273.798C695.261 275.313 695.435 276.425 695.084 276.883Z" fill="white"/>
<path fill-rule="evenodd" clip-rule="evenodd" d="M694.669 254.848C695.022 255.308 694.845 256.418 694.181 257.934C693.356 259.713 692.329 261.39 691.121 262.934L684.01 272.197C682.908 273.686 681.617 275.026 680.171 276.183C679.007 277.049 678.155 277.278 677.802 276.818C677.449 276.36 677.625 275.249 678.29 273.733C679.115 271.955 680.142 270.277 681.35 268.733L688.462 259.47C689.563 257.981 690.854 256.641 692.3 255.484C693.464 254.618 694.317 254.389 694.669 254.848V254.848Z" fill="white"/>
<path fill-rule="evenodd" clip-rule="evenodd" d="M698.436 265.385C698.436 266.035 697.709 266.658 696.415 267.118C694.839 267.62 693.191 267.863 691.537 267.835H681.48C679.826 267.863 678.178 267.62 676.602 267.118C675.309 266.659 674.582 266.035 674.582 265.385C674.582 264.736 675.309 264.112 676.602 263.652C678.178 263.15 679.826 262.908 681.48 262.935H691.539C693.193 262.908 694.84 263.15 696.417 263.652C697.71 264.112 698.438 264.735 698.438 265.385H698.436Z" fill="white"/>
<path fill-rule="evenodd" clip-rule="evenodd" d="M835.551 276.886C835.199 277.345 834.346 277.115 833.182 276.249C831.736 275.092 830.446 273.752 829.344 272.264L822.233 263.001C821.025 261.457 819.998 259.779 819.173 258C818.508 256.484 818.334 255.372 818.685 254.915C819.037 254.455 819.89 254.684 821.053 255.55C822.5 256.707 823.791 258.047 824.893 259.536L832.004 268.799C833.212 270.343 834.238 272.021 835.063 273.799C835.728 275.315 835.902 276.427 835.552 276.886H835.551Z" fill="white"/>
<path fill-rule="evenodd" clip-rule="evenodd" d="M835.134 254.851C835.486 255.311 835.31 256.422 834.645 257.938C833.821 259.716 832.794 261.394 831.586 262.938L824.475 272.201C823.373 273.69 822.082 275.03 820.635 276.187C819.472 277.053 818.62 277.282 818.267 276.822C817.914 276.363 818.09 275.253 818.755 273.737C819.58 271.958 820.606 270.28 821.815 268.736L828.926 259.473C830.028 257.985 831.318 256.645 832.765 255.488C833.929 254.622 834.781 254.393 835.134 254.851V254.851Z" fill="white"/>
<path fill-rule="evenodd" clip-rule="evenodd" d="M838.902 265.387C838.902 266.037 838.176 266.66 836.882 267.12C835.306 267.623 833.658 267.865 832.004 267.838H821.947C820.293 267.865 818.645 267.623 817.069 267.12C815.776 266.661 815.049 266.038 815.049 265.387C815.049 264.737 815.776 264.115 817.069 263.655C818.645 263.152 820.293 262.91 821.947 262.937H832.004C833.658 262.91 835.306 263.152 836.882 263.655C838.175 264.114 838.902 264.737 838.902 265.387Z" fill="white"/>
<path fill-rule="evenodd" clip-rule="evenodd" d="M799.456 276.886C799.103 277.345 798.251 277.115 797.087 276.249C795.641 275.092 794.35 273.752 793.248 272.264L786.137 263.001C784.929 261.457 783.902 259.779 783.077 258C782.412 256.484 782.238 255.372 782.589 254.915C782.942 254.455 783.794 254.684 784.958 255.55C786.404 256.707 787.695 258.047 788.797 259.536L795.908 268.799C797.116 270.343 798.142 272.021 798.967 273.799C799.633 275.315 799.809 276.427 799.456 276.886V276.886Z" fill="white"/>
<path fill-rule="evenodd" clip-rule="evenodd" d="M799.038 254.851C799.391 255.311 799.215 256.422 798.55 257.938C797.725 259.716 796.699 261.394 795.491 262.938L788.379 272.201C787.277 273.69 785.987 275.03 784.54 276.187C783.376 277.053 782.525 277.282 782.172 276.822C781.819 276.363 781.995 275.253 782.66 273.737C783.484 271.958 784.511 270.28 785.72 268.736L792.831 259.473C793.933 257.985 795.223 256.645 796.669 255.488C797.833 254.622 798.686 254.393 799.038 254.851V254.851Z" fill="white"/>
<path fill-rule="evenodd" clip-rule="evenodd" d="M802.807 265.387C802.807 266.037 802.081 266.66 800.787 267.12C799.21 267.623 797.563 267.865 795.909 267.838H785.852C784.198 267.865 782.55 267.623 780.973 267.12C779.68 266.661 778.954 266.038 778.954 265.387C778.954 264.737 779.68 264.115 780.973 263.655C782.55 263.152 784.198 262.91 785.852 262.937H795.909C797.563 262.91 799.21 263.152 800.787 263.655C802.08 264.114 802.807 264.737 802.807 265.387Z" fill="white"/>
<path fill-rule="evenodd" clip-rule="evenodd" d="M536.333 185.847C543.347 185.848 550.134 188.333 555.49 192.861C560.847 197.389 564.427 203.668 565.596 210.584C576.278 273.859 604.626 441.751 616.939 514.671C617.658 518.926 617.44 523.287 616.301 527.45C615.161 531.612 613.128 535.475 610.342 538.771C607.556 542.067 604.085 544.715 600.17 546.532C596.255 548.348 591.992 549.289 587.676 549.288H323.307C316.293 549.288 309.506 546.803 304.15 542.274C298.794 537.746 295.215 531.466 294.049 524.55C283.362 461.276 255.016 293.383 242.7 220.463C241.983 216.208 242.203 211.848 243.343 207.686C244.483 203.525 246.517 199.662 249.302 196.367C252.088 193.072 255.558 190.423 259.472 188.606C263.386 186.79 267.649 185.848 271.964 185.847H536.333Z" fill="#192280"/>
<path fill-rule="evenodd" clip-rule="evenodd" d="M345 524.584C337.986 524.584 331.198 522.099 325.841 517.571C320.484 513.042 316.905 506.763 315.737 499.846C305.689 440.324 280.133 288.964 268.566 220.463C267.847 216.208 268.065 211.848 269.204 207.686C270.343 203.524 272.377 199.661 275.162 196.365C277.948 193.07 281.418 190.421 285.332 188.605C289.246 186.788 293.509 185.847 297.824 185.847H540.132C547.147 185.846 553.935 188.331 559.292 192.859C564.649 197.388 568.228 203.667 569.395 210.584C579.448 270.108 605.004 421.466 616.567 489.968C617.286 494.223 617.068 498.583 615.928 502.745C614.789 506.907 612.756 510.77 609.97 514.066C607.185 517.361 603.714 520.009 599.8 521.826C595.886 523.643 591.623 524.584 587.308 524.584H345Z" fill="#E7E7E7"/>
<path fill-rule="evenodd" clip-rule="evenodd" d="M422.369 238.09C427.339 237.456 432.508 236.784 437.765 236.435C441.148 236.212 444.57 236.077 447.968 236.179C453.538 236.373 459.077 237.096 464.511 238.337C465.741 238.554 467.007 238.277 468.033 237.565C469.059 236.854 469.762 235.765 469.99 234.538C470.218 233.31 469.952 232.042 469.249 231.009C468.547 229.977 467.465 229.264 466.239 229.025C460.363 228.159 454.26 228.009 448.103 227.989C444.536 227.98 440.954 227.98 437.397 228.057C431.986 228.178 426.642 228.367 421.497 228.662C420.877 228.718 420.273 228.895 419.721 229.184C419.169 229.473 418.679 229.868 418.28 230.346C417.881 230.825 417.581 231.378 417.396 231.973C417.211 232.568 417.145 233.193 417.203 233.814C417.26 234.434 417.439 235.037 417.73 235.588C418.021 236.139 418.418 236.627 418.898 237.025C419.378 237.422 419.931 237.721 420.527 237.903C421.123 238.086 421.748 238.15 422.369 238.09ZM422.18 271.99C427.427 271.642 448.273 271.197 468.891 271.056C480.333 270.979 491.699 271.112 500.342 270.892C503.788 270.8 506.813 270.688 509.253 270.514C510.503 270.398 511.656 269.79 512.458 268.823C513.26 267.857 513.645 266.612 513.529 265.362C513.413 264.112 512.804 262.959 511.838 262.157C510.872 261.355 509.627 260.97 508.376 261.086C500.952 261.913 487.864 262.615 474.036 262.847C467.067 262.964 459.918 262.92 453.21 262.862C438.356 262.731 425.651 262.397 421.686 262.533C420.432 262.598 419.255 263.159 418.415 264.092C417.574 265.025 417.139 266.254 417.204 267.508C417.27 268.762 417.831 269.939 418.764 270.78C419.697 271.62 420.926 272.056 422.18 271.99V271.99ZM422.604 310.9C439.423 310.556 455.545 310.096 471.358 309.578C482.306 309.225 493.103 308.789 503.879 308.344C521.83 307.599 539.715 306.766 558.107 305.281C558.728 305.226 559.333 305.05 559.886 304.761C560.44 304.472 560.93 304.077 561.33 303.598C561.73 303.119 562.031 302.565 562.217 301.969C562.402 301.373 562.467 300.747 562.41 300.125C562.352 299.504 562.172 298.9 561.88 298.349C561.588 297.797 561.19 297.309 560.709 296.912C560.227 296.514 559.672 296.216 559.075 296.034C558.478 295.853 557.851 295.791 557.23 295.852C539.022 297.759 521.312 299.269 503.506 300.165C492.79 300.702 482.04 300.997 471.14 301.195C455.371 301.486 439.287 301.461 422.516 301.432C421.895 301.438 421.28 301.566 420.708 301.809C420.136 302.053 419.617 302.406 419.182 302.85C418.746 303.293 418.403 303.819 418.17 304.395C417.937 304.972 417.821 305.588 417.827 306.21C417.832 306.831 417.96 307.446 418.204 308.018C418.447 308.59 418.8 309.109 419.244 309.544C419.688 309.98 420.213 310.323 420.789 310.556C421.366 310.789 421.982 310.905 422.604 310.9V310.9ZM379.991 440.628C379.923 440.56 379.885 440.448 379.812 440.361C379.546 440.02 379.319 439.65 379.134 439.258C378.498 437.861 378.024 436.396 377.721 434.892C376.782 430.686 376.506 426.141 376.235 424.162L374.623 410.641C373.655 401.799 372.946 392.544 371.337 383.552C370.292 377.327 368.604 371.228 366.299 365.353C362.354 355.615 356.255 352.977 350.583 353.823C345.496 354.584 340.046 358.819 336 365.227C335.061 366.713 334.175 368.233 333.323 369.772C332.084 372.018 330.92 374.307 329.766 376.601C327.796 380.522 325.884 384.471 324.146 388.498C322.972 391.228 321.872 393.992 320.884 396.799C320.486 397.981 320.571 399.273 321.121 400.393C321.671 401.513 322.64 402.371 323.819 402.78C324.998 403.189 326.291 403.116 327.416 402.577C328.541 402.038 329.408 401.076 329.828 399.901C330.946 396.634 332.229 393.43 333.608 390.269C335.017 387.051 336.527 383.881 338.075 380.73C339.155 378.537 340.244 376.35 341.405 374.201C342.161 372.807 342.945 371.432 343.777 370.086C346.144 366.267 348.942 363.238 351.957 362.759C354.44 362.367 356.294 364.486 358.055 368.736C360.177 374.024 361.742 379.518 362.726 385.129C364.376 393.914 365.112 402.961 366.124 411.599L367.852 425.341C368.273 428.278 368.839 436.342 371.06 441.695C372.721 445.688 375.388 448.312 378.616 448.883C382.009 449.483 385.484 447.702 388.281 444.043C391.863 439.353 394.608 431.405 395.726 428.811C400.416 417.93 404.152 406.619 408.503 395.589C410.323 390.962 412.264 386.392 414.429 381.915C415.644 379.4 417.173 375.754 419.356 373C420.353 371.747 421.447 370.629 422.877 370.353C424.741 369.99 426.27 371.253 427.848 372.724C430.747 375.425 433.409 379.312 436.081 382.598C438.685 385.793 441.366 388.44 444.062 389.747C446.767 391.027 449.754 391.596 452.74 391.402C457.387 391.194 462.243 389.413 466.985 388.014C470.6 386.952 474.114 385.946 477.28 387.404C479.966 388.643 481.606 391.388 483.034 394.412C485.779 400.231 487.454 407.229 489.869 411.774C493.717 419 499.099 422.993 505.216 424.963C513.672 427.693 523.778 426.265 533.342 423.782C533.943 423.623 534.507 423.346 535.001 422.969C535.495 422.592 535.91 422.121 536.223 421.583C536.535 421.045 536.738 420.451 536.82 419.835C536.903 419.219 536.863 418.592 536.704 417.991C536.544 417.39 536.268 416.826 535.89 416.332C535.513 415.838 535.042 415.423 534.504 415.111C533.967 414.799 533.373 414.596 532.756 414.513C532.14 414.431 531.513 414.47 530.913 414.63C524.403 416.386 517.593 417.756 511.455 416.928C505.977 416.193 501.122 413.545 497.816 407.49C494.955 402.249 493.064 393.691 489.351 387.54C487.171 383.938 484.428 381.059 480.9 379.466C478.111 378.25 475.051 377.791 472.028 378.136C467.536 378.556 462.769 380.427 458.053 381.79C454.495 382.816 450.972 383.672 447.711 382.128C445.108 380.89 442.77 377.601 440.224 374.365C437.112 370.416 433.859 366.427 430.386 364.22C427.53 362.4 424.5 361.621 421.286 362.264C418.659 362.846 416.27 364.213 414.438 366.184C411.108 369.572 408.755 374.843 407.067 378.37C404.831 383.026 402.831 387.789 400.934 392.6C396.612 403.548 392.846 414.753 388.166 425.537C387.401 427.298 385.862 431.775 383.766 435.711C383.056 437.118 382.185 438.438 381.172 439.646C380.811 440.011 380.416 440.34 379.991 440.628ZM335.753 477.268C347.117 477.161 358.482 476.9 369.846 476.605C392.537 476.009 415.226 475.007 437.917 474.16C460.588 473.314 483.252 472.675 505.901 472.031C506.526 472.013 507.142 471.872 507.713 471.615C508.283 471.358 508.797 470.991 509.225 470.534C509.653 470.077 509.986 469.54 510.205 468.954C510.424 468.368 510.524 467.744 510.501 467.119C510.477 466.493 510.33 465.879 510.067 465.311C509.804 464.743 509.432 464.232 508.971 463.809C508.51 463.386 507.969 463.059 507.381 462.846C506.792 462.633 506.167 462.539 505.542 462.569C485.17 463.541 464.791 464.742 444.383 465.666C430.807 466.286 417.223 466.786 403.632 467.167C381.005 467.796 358.379 468.007 335.755 467.801C334.5 467.801 333.296 468.299 332.408 469.187C331.52 470.075 331.021 471.279 331.021 472.534C331.021 473.79 331.52 474.994 332.408 475.882C333.296 476.769 334.5 477.268 335.755 477.268H335.753ZM338.994 499.96C344.411 500.016 349.831 499.766 355.276 499.513C358.844 499.348 362.415 499.14 365.992 499.034C371.902 498.866 377.802 498.922 383.669 498.986C384.916 498.943 386.096 498.41 386.952 497.502C387.808 496.594 388.271 495.384 388.239 494.137C388.208 492.889 387.685 491.704 386.785 490.84C385.884 489.976 384.679 489.503 383.431 489.523C378.984 489.809 374.543 490.24 370.063 490.554C367.125 490.757 364.177 490.951 361.231 491.038C353.955 491.232 346.674 491.053 339.417 490.501C338.794 490.47 338.171 490.562 337.584 490.773C336.997 490.983 336.458 491.308 335.997 491.728C335.535 492.147 335.162 492.654 334.897 493.219C334.632 493.783 334.482 494.395 334.454 495.018C334.426 495.641 334.522 496.263 334.735 496.849C334.949 497.435 335.276 497.973 335.698 498.432C336.12 498.891 336.628 499.262 337.194 499.524C337.76 499.786 338.372 499.934 338.996 499.958L338.994 499.96Z" fill="white"/>
<path fill-rule="evenodd" clip-rule="evenodd" d="M384.964 305.082C385.91 304.789 386.74 304.205 387.335 303.413C387.93 302.622 388.261 301.663 388.28 300.673C394.959 290.873 398.968 279.5 399.909 267.678C401.075 253.196 397.585 238.415 388.883 226.16C381.812 216.17 369.682 209.054 358.463 209.234C351.29 209.346 344.388 212.264 339.117 219.161C335.528 220.635 332.305 222.877 329.674 225.729C324.176 231.45 319.931 239.494 317.405 244.876C310.309 259.958 307.395 280.228 312.84 296.528C316.642 307.911 324.384 317.446 337.443 322.267C339.801 323.142 342.249 323.758 344.741 324.101C347.23 324.45 349.748 324.531 352.253 324.344C358.43 323.8 364.395 321.817 369.668 318.555C374.752 315.439 379.335 311.569 383.259 307.079C383.842 306.423 384.413 305.76 384.964 305.082ZM377.828 300.905C376.705 299.429 375.607 297.942 374.517 296.442C370.534 290.944 366.735 285.334 362.722 279.826C361.471 278.012 360.11 276.276 358.647 274.628C357.505 273.423 356.265 272.31 354.775 271.945C353.754 271.703 352.81 272.385 351.868 273.014C350.298 274.152 348.826 275.419 347.468 276.804C343.379 280.717 339.333 284.96 335.475 289.369C331.777 293.599 328.268 297.994 325.03 302.384C328.699 307.962 334.071 312.206 340.347 314.484C342.141 315.162 344.004 315.641 345.903 315.912C347.805 316.185 349.731 316.253 351.648 316.115C356.552 315.687 361.286 314.113 365.471 311.522C369.847 308.85 373.79 305.527 377.165 301.668C377.39 301.418 377.612 301.161 377.828 300.905ZM383.438 293.04C388.116 285.116 390.898 276.217 391.564 267.039C392.474 254.532 389.371 241.784 381.748 231.281C377.194 225.027 370.113 220.157 362.94 218.788C358.366 217.912 353.768 218.62 349.935 221.537C350.033 221.915 350.081 222.304 350.08 222.694C350.08 222.998 350.051 223.301 349.993 223.599L351.939 230.52C353.037 235.38 353.914 240.235 354.876 245.06C355.52 248.302 356.218 251.522 356.846 254.769C357.485 258.056 358.105 261.347 358.652 264.677C360.374 265.447 361.959 266.496 363.342 267.779C365.684 269.885 367.698 272.61 369.382 274.783C372.998 279.386 376.448 284.081 380.011 288.693C381.14 290.151 382.283 291.6 383.44 293.04H383.438ZM342.152 229.001C341.535 229.119 340.901 229.111 340.288 228.976C338.851 229.897 337.53 230.988 336.354 232.224C331.523 237.137 327.845 244.136 325.599 248.782C320.313 259.716 317.429 273.81 319.282 286.496C319.591 288.629 320.051 290.737 320.659 292.804C323.297 289.644 326.066 286.508 328.917 283.453C333.084 278.981 337.414 274.674 341.801 270.714C343.732 268.943 346.389 266.494 349.235 265.068C348.788 259.764 348.285 254.527 347.372 249.339C346.384 243.724 344.932 238.201 343.466 232.616C343.093 231.389 342.655 230.182 342.154 229.001H342.152Z" fill="#737CE3"/>
<path fill-rule="evenodd" clip-rule="evenodd" d="M906.273 823.87C913.26 809.563 943.797 853.217 932.125 864.066C916.026 879.033 824.426 915.86 809.666 913.665C794.905 911.47 827.474 865.84 843.574 850.872C859.673 835.905 886.776 863.775 906.273 823.87Z" fill="#1A2283"/>
<path fill-rule="evenodd" clip-rule="evenodd" d="M944.055 827.229C939.086 830.755 929.387 849.879 918.204 856.593C899.395 867.894 853.108 888.894 831.19 895.039C816.907 899.044 793.619 891.561 786.713 893.471C782.416 894.658 785.325 905.891 789.746 906.506C797.664 907.603 820.044 904.879 834.237 900.066C855.784 892.763 900.063 873.449 919.024 862.677C930.556 856.129 943.837 841.342 948.011 835.433C949.761 832.953 946.529 825.471 944.055 827.229Z" fill="white"/>
<path fill-rule="evenodd" clip-rule="evenodd" d="M630.346 756.711C644.119 748.721 645.169 801.985 629.434 804.494C607.727 807.96 511.137 787.537 500.099 777.495C489.062 767.452 541.524 747.689 563.231 744.223C584.938 740.757 591.929 778.998 630.346 756.711Z" fill="#1A2283"/>
<path fill-rule="evenodd" clip-rule="evenodd" d="M659.856 780.542C653.763 780.703 635.06 791.186 622.033 790.535C600.116 789.447 549.978 781.113 528.349 774.011C514.256 769.383 499.081 750.198 492.28 747.939C488.05 746.532 484.211 757.482 487.541 760.455C493.507 765.776 513.611 775.976 528.08 779.883C550.045 785.816 597.578 794.433 619.326 796.045C632.551 797.028 651.816 792.143 658.575 789.561C661.409 788.473 662.89 780.46 659.856 780.542Z" fill="white"/>
<path fill-rule="evenodd" clip-rule="evenodd" d="M778.804 593.519C716.978 623.118 659.545 585.294 636.119 626.808C613.092 667.615 694.636 755.177 627.096 768.11C594.822 774.287 540.164 746.547 534.2 712.693C528.236 678.838 550.528 595.443 591.291 564.988C632.055 534.533 724.874 520.701 778.802 529.974C835.202 539.669 838.359 565.011 778.804 593.519Z" fill="#69BAC9"/>
<path fill-rule="evenodd" clip-rule="evenodd" d="M711.333 513.259C712.199 513.748 712.61 514.798 712.94 515.868C713.453 517.626 713.736 519.443 713.782 521.274C714.033 531.137 711.117 540.821 705.462 548.906C701.822 554.049 696.836 557.217 691.241 559.177C682.273 562.323 671.9 562.555 662.869 562.933C654.965 563.139 647.099 564.092 639.375 565.779C631.626 567.55 624.134 570.271 617.329 574.52C608.191 580.042 602.272 587.601 597.886 596.16C588.018 615.409 586.427 640.153 575.433 658.931C573.154 662.834 570.653 666.605 567.942 670.223C565.273 673.776 562.294 677.087 559.041 680.117C550.291 688.215 540.746 694.507 532.721 702.735C529.012 706.497 525.76 710.685 523.036 715.213C522.425 716.309 522.273 717.603 522.616 718.811C522.959 720.019 523.767 721.041 524.864 721.652C525.96 722.264 527.254 722.415 528.462 722.072C529.669 721.729 530.692 720.921 531.303 719.825C534.196 714.406 537.875 709.446 542.222 705.106C548.989 698.151 556.704 692.193 563.744 684.933C567.081 681.463 570.113 677.711 572.804 673.718C575.453 669.794 577.881 665.726 580.079 661.532C590.432 642.172 590.858 617.043 600.335 597.377C604.304 589.14 609.962 581.937 618.597 576.594C625.212 572.719 632.443 570.01 639.975 568.583C647.516 567.074 655.299 566.609 662.931 566.614C672.404 566.681 683.235 566.812 692.795 564.053C699.624 562.078 705.781 558.618 710.529 552.747C714.055 548.316 716.855 543.354 718.825 538.045C720.847 532.697 722.012 527.063 722.275 521.352C722.432 518.158 722.051 514.961 721.148 511.894C720.332 509.164 718.609 506.795 716.265 505.177C715.734 504.853 715.144 504.637 714.53 504.54C713.916 504.444 713.289 504.47 712.685 504.616C712.08 504.763 711.511 505.026 711.008 505.393C710.506 505.759 710.081 506.221 709.757 506.752C709.433 507.282 709.217 507.872 709.121 508.486C709.025 509.1 709.05 509.727 709.197 510.332C709.343 510.936 709.607 511.505 709.973 512.008C710.34 512.51 710.801 512.935 711.332 513.259H711.333ZM669.921 627.693C666.42 625.35 662.256 624.199 658.049 624.411C652.632 624.682 647.129 626.851 642.555 629.769C634.943 634.642 628.251 640.821 622.789 648.021C617.15 655.465 612.934 663.858 611.995 672.386C611.221 678.466 611.927 684.54 613.34 690.522C615.422 699.292 619.134 707.874 623.04 715.666C624.734 719.161 627.803 723.532 629.531 727.979C630.557 730.622 631.089 733.274 630.266 735.723C627.701 743.206 621.065 747.916 614.096 752.446C606.376 757.46 598.307 762.271 593.307 769.149C590.318 773.252 588.54 778.112 588.177 783.176C588.152 783.797 588.25 784.417 588.465 785.001C588.68 785.584 589.007 786.12 589.429 786.576C589.851 787.033 590.359 787.403 590.923 787.663C591.488 787.924 592.098 788.071 592.719 788.096C593.974 788.146 595.197 787.695 596.12 786.843C597.043 785.991 597.589 784.808 597.639 783.553C597.62 777.684 600.043 773.205 603.598 769.355C613.684 758.426 630.74 751.475 634.53 737.018C635.192 734.306 635.024 731.458 634.046 728.843C632.265 723.582 628.083 718.326 625.814 714.226C621.806 706.735 617.721 698.525 615.703 689.965C614.321 684.349 614.046 678.518 614.894 672.797C616.249 664.966 620.552 657.372 626.288 650.896C631.857 644.689 638.519 639.559 645.943 635.761C649.101 634.119 652.549 633.111 656.093 632.794C659.06 632.532 662.012 633.443 664.316 635.33C664.817 635.698 665.386 635.964 665.99 636.112C666.594 636.261 667.221 636.288 667.836 636.194C668.45 636.1 669.04 635.886 669.572 635.564C670.104 635.241 670.567 634.818 670.935 634.317C671.303 633.815 671.569 633.247 671.717 632.643C671.865 632.039 671.893 631.412 671.799 630.797C671.705 630.183 671.49 629.593 671.168 629.061C670.846 628.529 670.422 628.066 669.921 627.698V627.693Z" fill="white"/>
<path fill-rule="evenodd" clip-rule="evenodd" d="M795.497 550.881C732.15 616.89 660.144 578.668 632.691 620.356C620.475 638.915 639.085 681.926 661.262 680.571C696.575 678.417 822.209 629.034 844.58 607.418C862.532 590.076 808.976 536.831 795.497 550.881Z" fill="black" fill-opacity="0.2"/>
<path fill-rule="evenodd" clip-rule="evenodd" d="M850.401 559.196C810.253 664.803 864.271 713.484 873.451 726.017C906.348 770.914 961.173 790.033 926.96 829.706C905.5 854.587 847.433 863.414 819.36 840.79C791.13 818.043 763.912 744.419 757.582 693.229C751.252 642.04 766.776 586.383 781.376 533.653C792.55 493.3 873.862 497.481 850.401 559.196Z" fill="#69BAC9"/>
<path fill-rule="evenodd" clip-rule="evenodd" d="M870.691 509.991C864.945 511.815 859.307 515.765 854.144 520.697C847.242 527.284 841.105 535.498 836.41 541.374C820.255 561.407 803.42 588.821 796.122 617.029C791.15 636.229 790.521 655.808 797.781 673.807C799.277 677.578 801.634 681.595 804.901 683.788C806.115 684.636 807.504 685.2 808.965 685.437C810.427 685.674 811.923 685.579 813.342 685.158C816.605 684.277 822.103 680.56 826.711 679.495C829.436 678.865 831.793 679.34 832.712 682.748C839.174 707.388 833.085 735.233 837.352 760.551C839.23 771.703 843.068 782.375 850.686 792.143C855.309 798.071 861.223 801.731 867.792 804.247C881.687 809.572 898.763 809.257 911.797 815.791C917.852 818.83 922.291 823.254 925.935 828.337C931.821 836.536 935.635 846.433 940.223 855.591C940.513 856.141 940.908 856.629 941.386 857.026C941.864 857.424 942.416 857.723 943.009 857.907C943.603 858.091 944.227 858.157 944.846 858.1C945.465 858.043 946.067 857.865 946.617 857.575C947.167 857.286 947.655 856.891 948.052 856.413C948.45 855.935 948.749 855.383 948.933 854.789C949.118 854.196 949.183 853.571 949.126 852.952C949.069 852.333 948.891 851.732 948.601 851.182C943.442 841.831 938.979 831.724 932.523 823.414C927.929 817.505 922.397 812.437 915.016 809.068C901.493 802.892 884.117 803.749 869.771 798.807C864.05 796.838 858.838 793.888 854.699 788.909C847.32 780.021 843.451 770.164 841.428 759.811C836.508 734.6 842.09 706.599 835.106 682.094C834.027 678.188 831.696 676.842 828.863 676.799C823.82 676.727 816.646 681.745 812.708 682.81C811.626 683.125 810.488 683.193 809.377 683.008C808.266 682.822 807.211 682.389 806.29 681.741C803.434 679.79 801.479 676.184 800.206 672.859C793.604 655.343 794.519 636.433 799.891 618.07C807.853 590.853 825.505 564.916 841.99 546.059C846.763 540.647 852.997 533.034 859.913 527.047C864.187 523.349 868.717 520.3 873.329 519.08C874.523 518.72 875.527 517.903 876.122 516.807C876.717 515.711 876.856 514.425 876.508 513.227C876.159 512.03 875.353 511.018 874.263 510.412C873.173 509.806 871.888 509.655 870.687 509.991H870.691ZM769.872 751.597C769.648 747.338 770.96 742.363 773.202 737.817C775.549 733.045 778.762 728.694 782.243 726.052C784.109 724.558 786.336 723.581 788.7 723.22C789.785 723.046 790.895 723.107 791.955 723.399C793.014 723.692 793.999 724.208 794.842 724.914C796.658 726.609 798.023 728.73 798.815 731.085C800.291 735.035 800.901 739.512 801.511 743.159C802.377 748.647 802.929 754.257 803.423 759.886C803.917 765.554 804.405 771.227 805.252 776.812C805.926 781.688 807.027 786.495 808.544 791.178C810.499 797.272 814.034 802.738 818.79 807.02C828.862 816.303 843.174 819.967 853.44 830.777C856.331 833.949 858.45 837.746 859.631 841.871C861.62 848.289 861.828 855.343 861.721 861.991C861.765 863.238 862.298 864.417 863.206 865.273C864.114 866.128 865.323 866.591 866.57 866.56C867.817 866.53 869.002 866.008 869.867 865.109C870.731 864.21 871.207 863.006 871.189 861.759C870.691 854.252 869.703 846.353 866.881 839.301C864.911 834.369 862.143 829.814 858.053 826.092C846.873 815.798 832.028 813.068 821.235 804.21C816.708 800.528 813.254 795.697 811.235 790.223C809.099 784.233 807.677 778.013 807 771.69C805.872 762.053 805.911 752.209 804.764 742.718C804.352 738.826 803.931 734.073 802.654 729.795C801.823 726.694 800.242 723.845 798.051 721.498C795.316 718.72 791.836 717.743 788.298 717.854C784.896 718.046 781.602 719.119 778.739 720.966C774.247 723.761 769.851 728.599 766.45 734.063C762.941 739.692 760.7 746.023 760.405 751.599C760.405 752.854 760.904 754.058 761.791 754.946C762.679 755.834 763.883 756.333 765.138 756.333C766.394 756.333 767.598 755.834 768.486 754.946C769.373 754.058 769.872 752.854 769.872 751.599L769.872 751.597Z" fill="white"/>
<path fill-rule="evenodd" clip-rule="evenodd" d="M880.056 704.847C876.789 706.924 874.345 710.355 873.081 714.822C870.957 722.334 871.474 732.348 872.263 737.595C872.609 740.248 873.094 742.882 873.716 745.484C874.327 748.111 875.163 750.681 876.214 753.165C878.625 759.075 881.906 763.126 885.676 766.074C888.536 768.269 891.754 769.954 895.187 771.054C912.229 776.766 936.502 770.048 951.69 781.877C952.722 782.577 953.989 782.842 955.215 782.614C956.441 782.386 957.528 781.684 958.239 780.659C958.95 779.634 959.227 778.37 959.012 777.142C958.796 775.914 958.104 774.82 957.087 774.099C951.269 770.609 944.802 769.074 937.925 768.649C923.947 767.787 908.429 771.597 895.971 768.387C892.771 767.621 889.768 766.19 887.157 764.187C883.74 761.496 881.044 757.531 879.094 752.067C878.322 749.693 877.771 747.253 877.448 744.777C877.127 742.278 876.955 739.762 876.935 737.242C876.925 733.176 877.41 725.979 879.433 720.035C880.495 716.923 882.013 714.251 884.422 713.254C885.537 712.676 886.377 711.677 886.756 710.48C887.135 709.282 887.022 707.983 886.444 706.868C885.865 705.753 884.867 704.914 883.669 704.535C882.471 704.156 881.172 704.268 880.057 704.847H880.056Z" fill="white"/>
<path fill-rule="evenodd" clip-rule="evenodd" d="M831.883 407.649C805.744 401.508 780.913 469.635 754.685 470.704C728.457 471.773 686.243 426.306 674.517 414.056C669.566 408.875 661.888 403.879 658.295 402.779C649.05 399.943 633.705 399.059 632.642 404.037C631.939 407.335 647.882 404.857 647.022 409.776C644.839 422.274 651.169 425.457 663.162 426.243C675.604 452.664 729.43 512.749 759.78 516.573C790.131 520.396 837.66 467.429 845.247 449.189C853.499 429.368 846.046 410.972 831.883 407.649Z" fill="#D6AEAE"/>
<path fill-rule="evenodd" clip-rule="evenodd" d="M835.258 474.84C826.258 476.355 819.442 465.475 811.189 461.453C793.588 452.88 789.231 478.786 769.883 448.828C764.037 439.768 774.666 405.5 787.116 395.676C799.566 385.853 831.59 380.416 844.596 389.867C857.602 399.319 866.722 438.215 865.163 452.377C863.804 464.772 844.254 473.331 835.258 474.84Z" fill="#1A2283"/>
<path fill-rule="evenodd" clip-rule="evenodd" d="M823.084 434.928C816.313 440.304 811.22 473.723 795.42 483.729C776.108 495.955 717.579 497.609 707.214 508.304C696.849 518.999 717.426 547.546 733.212 547.908C753.871 548.377 814.006 527.185 831.146 511.108C845.697 497.461 837.388 464.152 836.04 451.451C835.305 444.494 828.565 430.57 823.084 434.928Z" fill="black" fill-opacity="0.2"/>
<path fill-rule="evenodd" clip-rule="evenodd" d="M862.104 534.019C865.951 556.072 777.651 568.993 761.906 548.065C737.388 515.488 809.606 498.359 813.729 422.204C815.203 394.997 889.368 397.168 871.274 428.025C861.111 445.362 851.052 470.718 862.104 534.019Z" fill="#1A2283"/>
<path fill-rule="evenodd" clip-rule="evenodd" d="M851.63 449.172C842.351 445.483 859.768 491.185 846.67 504.071C830.754 519.734 758.287 529.966 756.129 543.151C753.97 556.336 809.345 586.006 833.711 583.181C858.077 580.357 899.347 548.517 902.333 526.181C905.32 503.845 860.908 452.859 851.63 449.172Z" fill="black" fill-opacity="0.2"/>
<path fill-rule="evenodd" clip-rule="evenodd" d="M846.118 622.599C860.062 634.532 879.365 634.856 889.235 623.322L889.241 623.315C899.109 611.784 895.808 592.761 881.862 580.828L619.551 356.354C614.215 351.787 608.051 348.287 601.395 346.043C589.614 342.071 569.868 335.41 555.231 330.474C553.798 329.991 552.251 329.957 550.798 330.377C549.345 330.797 548.055 331.65 547.1 332.824C546.146 333.997 545.573 335.434 545.457 336.942C545.342 338.451 545.69 339.958 546.455 341.263C554.366 354.76 565.031 372.963 571.062 383.253C574.15 388.523 578.095 393.24 582.736 397.211L846.118 622.599Z" fill="#737CE3"/>
<path fill-rule="evenodd" clip-rule="evenodd" d="M549.269 355.112C600.641 403.943 629.242 428.628 689.472 463.718C779.691 516.277 815.232 589.367 848.241 606.685C864.591 615.261 914.085 620.484 887.514 567.611C878.835 550.338 968.991 639.563 952.927 656.571C936.863 673.579 839.925 693.051 791.138 669.659C723.219 637.095 585.749 513.625 545.44 461.202C523.868 433.148 534.782 341.342 549.269 355.112Z" fill="black" fill-opacity="0.2"/>
<path fill-rule="evenodd" clip-rule="evenodd" d="M854.534 605.498C856.348 607.05 858.705 607.819 861.087 607.634C863.468 607.45 865.678 606.327 867.231 604.513L873.076 597.683C873.08 597.679 873.076 597.672 873.081 597.668C873.078 597.661 873.074 597.655 873.069 597.649L804.969 539.374C804.748 539.185 804.493 539.041 804.216 538.951C803.94 538.861 803.649 538.826 803.359 538.848C803.069 538.871 802.787 538.95 802.528 539.081C802.269 539.213 802.038 539.394 801.849 539.615L797.429 544.78C795.877 546.596 795.11 548.953 795.295 551.334C795.481 553.715 796.605 555.925 798.419 557.478L854.534 605.498Z" fill="white"/>
<path fill-rule="evenodd" clip-rule="evenodd" d="M854.543 412.039C832.902 427.933 868.597 491.05 852.383 511.692C836.169 532.333 772.789 529.094 757.25 535.885C754.785 536.961 747.059 522.788 743.597 521.318C738.537 519.163 738.674 526.126 742.011 532.711C743.534 535.72 728.798 519.784 727.986 522.9C726.034 530.37 736.758 549.406 759.147 552.434C803.18 558.382 867.966 558.197 890.579 537.595C913.193 516.993 903.765 446.454 894.818 428.842C885.099 409.699 866.269 403.421 854.543 412.039Z" fill="#D6AEAE"/>
<path fill-rule="evenodd" clip-rule="evenodd" d="M907.842 453.094C903.151 460.92 890.45 459.042 882.033 462.708C864.085 470.529 880.959 490.662 845.612 485.928C834.926 484.491 815.762 454.159 816.376 438.312C816.991 422.466 833.643 394.577 849.278 390.822C864.912 387.067 900.415 405.383 910.175 415.764C918.716 424.845 912.534 445.272 907.842 453.094Z" fill="#1A2283"/>
<path fill-rule="evenodd" clip-rule="evenodd" d="M873.401 372.193C872.663 379.767 867.419 398.869 855.75 399.64C843.761 400.432 840.461 380.778 841.204 373.204C841.947 365.63 854.831 354.359 860.199 354.189C865.567 354.018 874.128 364.785 873.401 372.193Z" fill="#D6AEAE"/>
<path fill-rule="evenodd" clip-rule="evenodd" d="M843.097 388.012C843.871 387.373 847.244 391.879 849.209 391.985C851.174 392.092 852.951 388.447 854.887 388.651C856.823 388.854 858.556 394.028 860.812 393.179C863.069 392.33 867.303 387.187 868.436 383.564C869.568 379.941 868.798 373.614 867.588 371.464C866.526 369.586 863.184 369.91 861.16 370.665C854.543 373.148 845.429 372.432 841.833 369.886C838.237 367.34 834.762 364.049 839.597 355.375C841.267 352.389 850.821 344.79 852.922 350.705C857.143 362.616 858.052 344.544 871.953 358.144C875.297 361.411 874.397 367.815 874.126 372.553C873.855 377.291 872.761 382.397 870.312 386.575C867.592 391.226 866.706 394.569 857.786 400.47C853.985 402.983 837.167 405.204 844.577 395.809C845.85 394.202 842.327 388.646 843.097 388.012Z" fill="black"/>
</svg>
